<svg width="105" height="47" viewBox="0 0 105 47" fill="none" xmlns="http://www.w3.org/2000/svg">
<path fill-rule="evenodd" clip-rule="evenodd" d="M81.8106 0C87.9464 0 93.8095 2.48202 98.1728 6.89451C102.536 11.307 104.99 17.2363 104.99 23.4413C104.99 29.6464 102.536 35.5757 98.1728 39.9881C93.8095 44.4006 87.9464 46.8826 81.8106 46.8826H76.0839H29.0428H23.1797H23.0433C16.9075 46.8826 11.1808 44.4006 6.81755 39.9881C2.45432 35.5757 0 29.6464 0 23.4413C0 17.2363 2.45432 11.307 6.81755 6.89451C11.1808 2.48202 16.9075 0 23.0433 0H81.8106ZM81.8106 43.2975C87.2647 43.2975 92.1733 41.0913 95.7185 37.5061C99.2636 33.921 101.445 28.9569 101.445 23.4413C101.445 17.9257 99.2636 12.9617 95.7185 9.37653C92.1733 5.79139 87.2647 3.58514 81.8106 3.58514H23.0433C17.7256 3.58514 12.817 5.79139 9.27187 9.37653C5.72675 12.9617 3.54513 17.9257 3.54513 23.4413C3.54513 28.9569 5.72675 33.921 9.40822 37.5061C12.9534 41.0913 17.7256 43.2975 23.1797 43.2975H29.0428H76.0839H81.8106Z" fill="#F6120D"/>
<path fill-rule="evenodd" clip-rule="evenodd" d="M22.1722 31.4867C24.7904 31.4867 27.979 24.29 29.6501 20.5183L29.6502 20.518C29.8053 20.168 29.9473 19.8475 30.0745 19.565C30.0979 19.5055 30.1204 19.4479 30.1419 19.3925L30.1423 19.3916C30.3716 18.8031 30.5068 18.456 30.7558 18.456C30.9236 18.6268 30.5616 19.6261 30.0637 21.0001L30.0637 21.0002C28.9451 24.0874 27.1408 29.0668 29.1208 30.7935C29.329 31.0053 29.6166 31.1362 29.8624 31.248C29.9383 31.2826 30.0102 31.3153 30.0745 31.348C32.3739 31.8159 34.0913 29.4213 35.4721 27.4958C35.7276 27.1395 35.9716 26.7993 36.2056 26.4962L35.3882 25.6645C35.2558 25.8328 35.1154 26.0503 34.9728 26.2711L34.9727 26.2711C34.5283 26.9594 34.0626 27.6804 33.7532 27.0507C32.7995 25.6645 38.2494 10 38.2494 10H33.072C32.9385 10.2376 32.4948 11.2229 31.8847 12.5777C30.0027 16.7567 26.5377 24.4508 25.7146 24.5555C25.5784 24.6941 25.4421 24.4169 25.4421 24.2782C26.1234 19.2878 27.3496 14.8518 28.8483 10H23.6709C23.4887 10.5223 23.3177 11.0134 23.1563 11.4764L23.1554 11.4792L23.1554 11.4792C20.6634 18.6321 20.5075 19.0794 17.9485 24.4169C16.5861 27.0507 14.6786 28.7142 16.0411 24.5555H11.6812C10.7274 27.0507 10.4549 31.2094 13.3161 31.4867H13.4524C16.1674 31.4867 19.1892 25.1391 20.1254 23.1726C20.2698 22.8694 20.3646 22.6703 20.401 22.6147C20.3324 23.3475 20.2034 24.1153 20.0748 24.8807L20.0748 24.8808C19.6925 27.1563 19.3138 29.4101 20.5372 30.6549C20.946 31.348 21.6272 31.4867 22.1722 31.4867ZM45.0617 24.6941C52.4191 20.8126 56.9152 13.327 55.689 12.6338C53.6453 11.3862 44.5167 14.1587 41.383 24.5555C40.9743 24.6941 39.3393 25.11 39.3393 25.11L38.6581 27.1893L41.2468 26.3576C41.2468 26.3576 40.9743 31.4867 45.3342 31.6253C48.7404 31.4867 50.5116 26.3576 49.4216 22.7534L46.4242 24.2782C46.4242 24.2782 47.1054 28.1597 45.6067 28.5756C45.0617 28.5756 44.5167 27.0507 45.0617 24.6941ZM37.7044 31.4867C38.5219 31.4867 39.0668 30.9322 39.0668 30.1004C39.0668 29.2687 38.3856 28.7142 37.7044 28.7142C36.8869 28.7142 36.3419 29.2687 36.3419 30.1004C36.3419 30.7935 36.8869 31.4867 37.7044 31.4867ZM45.8792 22.6147C47.6504 22.1989 54.3265 14.8518 52.8278 14.9904C50.1029 15.6836 45.3342 22.1989 45.8792 22.6147ZM51.3291 23.5851V22.0603C51.3291 22.0603 55.144 19.4264 56.0977 19.0105C56.9152 18.7333 57.7327 19.1492 57.4602 20.2581C57.4143 20.5383 57.0439 21.526 56.5987 22.7129C55.7222 25.0502 54.556 28.1597 55.0078 28.1597C57.0515 27.8824 59.9127 21.6444 60.4576 19.2878H63.8638C63.8638 19.2878 60.7301 28.5756 61.0026 28.7142C61.2751 28.8528 62.2289 27.8824 62.2289 27.8824C62.2289 27.8824 62.5014 28.8528 62.6376 29.1301C62.0926 29.8232 60.7301 30.7935 59.6402 31.2094C58.5502 31.6253 57.4602 31.2094 57.324 30.239C57.1877 29.2687 57.5965 28.0211 57.5965 28.0211C57.5965 28.0211 55.5527 29.9618 53.7815 31.0708C53.2365 31.348 52.6916 31.4867 52.4191 31.4867C51.1928 31.4867 51.0566 29.9618 51.0566 29.5459C51.0566 29.1111 51.6896 27.3882 52.2938 25.7438C52.8453 24.2426 53.3728 22.8069 53.3728 22.4761C53.2365 22.3375 51.3291 23.5851 51.3291 23.5851ZM71.7662 19.4264H75.0361L69.8587 36.3385H66.5888C66.5888 36.3385 68.273 30.1432 68.7358 29.4495C66.1604 32.7236 63.8621 31.4749 63.4551 28.7142C63.0463 25.3872 64.2726 22.1989 66.9975 20.2581C69.5862 18.5947 70.9487 19.8423 71.3574 20.5354C71.4937 20.2581 71.7662 19.4264 71.7662 19.4264ZM68.7687 22.0603C69.45 21.2285 70.4037 21.2285 70.4037 22.6147C70.4037 24.2782 69.3137 27.1893 68.2237 27.7438C67.815 28.0211 67.1338 28.4369 66.9975 26.7735C66.8677 24.9247 68.3453 22.6985 68.7211 22.1322L68.7444 22.0971L68.7687 22.0603ZM82.5297 26.9121C82.5297 26.9121 79.2598 30.1004 78.1698 28.4369C84.3009 25.11 85.7996 20.8126 83.7559 19.565C81.031 18.0402 73.4011 20.9513 74.2186 28.8528C73.8099 29.1301 72.9924 29.5459 72.9924 29.5459L73.5374 31.0708C73.5374 31.0708 74.6274 30.5163 74.8998 30.239C75.7173 31.0708 76.2623 31.4867 77.6248 31.4867C80.6222 31.6253 83.2109 28.1597 83.2109 28.1597L82.5297 26.9121ZM77.8973 27.0507C81.1672 24.2782 82.6659 21.783 81.9847 21.2285C81.3035 20.674 79.8047 22.0603 78.9873 23.5851C78.0335 25.2486 77.761 26.7735 77.8973 27.0507ZM87.5708 31.6253C85.7996 31.4867 84.9821 30.1004 84.7096 29.5459C82.8022 24.2782 88.5246 19.565 88.5246 19.565H91.9308C91.9308 19.565 86.8896 23.7237 87.5708 27.6052C88.1158 29.9618 90.1595 28.8528 91.3858 26.219C91.3995 26.1769 91.4259 26.1022 91.4612 26.002C91.7753 25.1109 92.8018 22.1989 92.067 22.1989C91.2495 22.1989 90.2958 24.001 90.2958 24.001L89.3421 23.0306C89.3421 23.0306 91.3858 20.2581 93.5657 19.4264C93.8382 19.2878 95.4732 19.0105 95.4732 21.3671C95.6094 22.3375 94.6557 28.2983 90.432 30.6549C89.0696 31.348 88.2521 31.6253 87.5708 31.6253Z" fill="#F6120D"/>
</svg>
