<svg width="31" height="14" viewBox="0 0 31 14" fill="none" xmlns="http://www.w3.org/2000/svg">
<path fill-rule="evenodd" clip-rule="evenodd" d="M0 6.99672C0 7.44262 0.360619 7.80328 0.806473 7.80328L28.2593 7.80328L23.4336 12.6295C23.1189 12.9443 23.1189 13.4492 23.4336 13.7639C23.7483 14.0787 24.2532 14.0787 24.5679 13.7639L30.764 7.56721C31.0787 7.25246 31.0787 6.74754 30.764 6.43279L24.5679 0.236066C24.4105 0.0786886 24.2073 0 23.9975 0C23.7876 0 23.5844 0.0786886 23.427 0.236066C23.1123 0.55082 23.1123 1.05574 23.427 1.37049L28.2527 6.19672L0.793358 6.19672C0.360617 6.19672 0 6.55082 0 6.99672Z" fill="white"/>
</svg>
