<?xml version="1.0" encoding="UTF-8"?>
<svg width="175px" height="194px" viewBox="0 0 175 194" version="1.1" xmlns="http://www.w3.org/2000/svg" xmlns:xlink="http://www.w3.org/1999/xlink">
    <!-- Generator: Sketch 52.4 (67378) - http://www.bohemiancoding.com/sketch -->
    <title>Group 40</title>
    <desc>Created with Sketch.</desc>
    <defs>
        <filter x="-51.9%" y="-43.9%" width="203.8%" height="187.9%" filterUnits="objectBoundingBox" id="filter-1">
            <feOffset dx="0" dy="15" in="SourceAlpha" result="shadowOffsetOuter1"></feOffset>
            <feGaussianBlur stdDeviation="10.5" in="shadowOffsetOuter1" result="shadowBlurOuter1"></feGaussianBlur>
            <feColorMatrix values="0 0 0 0 0   0 0 0 0 0   0 0 0 0 0  0 0 0 0.134765625 0" type="matrix" in="shadowBlurOuter1" result="shadowMatrixOuter1"></feColorMatrix>
            <feMerge>
                <feMergeNode in="shadowMatrixOuter1"></feMergeNode>
                <feMergeNode in="SourceGraphic"></feMergeNode>
            </feMerge>
        </filter>
        <polyline id="path-2" points="36.9233333 39.6946565 0.271541667 17.1699237 13.015 0.319938931 36.9233333 39.6946565"></polyline>
        <linearGradient x1="100%" y1="72.3857146%" x2="77.0286071%" y2="6.71064035%" id="linearGradient-4">
            <stop stop-color="#FFFFFE" offset="0%"></stop>
            <stop stop-color="#B4B6A8" offset="100%"></stop>
        </linearGradient>
        <path d="M132.887583,66.7215573 C132.887583,29.922626 103.139917,0.0909007634 66.4437917,0.0909007634 C29.7476667,0.0909007634 0,29.922626 0,66.7215573 C0,85.2490382 8.79541667,101.450412 19.6618333,110.410687 C29.8933333,118.847389 47.9722292,123.310656 60.0875,118.238473 C61.0846042,117.820885 61.9867083,119.017679 61.3454583,119.889771 L52.5215417,131.887878 C57.0095,132.847298 61.6704375,133.327206 66.4437917,133.328 L66.4437917,133.352214 C67.6000208,133.352214 68.749125,133.321649 69.8907083,133.264092 C69.9077292,133.263298 69.9243542,133.263298 69.9417708,133.262504 L69.941375,133.260122 C105.011417,131.435359 132.887583,102.344336 132.887583,66.7215573" id="path-5"></path>
        <linearGradient x1="50%" y1="-1.8928502%" x2="52.1734458%" y2="100%" id="linearGradient-7">
            <stop stop-color="#C5D3D1" offset="0%"></stop>
            <stop stop-color="#FFFFFF" offset="100%"></stop>
        </linearGradient>
    </defs>
    <g id="Page-1" stroke="none" stroke-width="1" fill="none" fill-rule="evenodd">
        <g id="Главная---Десктоп" transform="translate(-96.000000, -444.000000)">
            <g id="Group-40" filter="url(#filter-1)" transform="translate(117.000000, 450.000000)">
                <g id="1212" transform="translate(66.500000, 78.500000) scale(-1, 1) translate(-66.500000, -78.500000) ">
                    <path d="M0,66.797771 C0,103.596702 132.887583,103.596702 132.887583,66.797771 C132.887583,29.9988397 103.139917,0.167114504 66.4437917,0.167114504 C29.7476667,0.167114504 0,29.9988397 0,66.797771" id="Fill-1" fill="#FFFFFE"></path>
                    <g id="Group-5" transform="translate(52.250000, 116.305344)">
                        <mask id="mask-3" fill="white">
                            <use xlink:href="#path-2"></use>
                        </mask>
                        <g id="Clip-4"></g>
                        <polyline id="Fill-3" fill="url(#linearGradient-4)" mask="url(#mask-3)" points="36.9233333 39.6946565 0.271541667 17.1699237 13.015 0.319938931 36.9233333 39.6946565"></polyline>
                    </g>
                    <g id="Group-8" transform="translate(0.000000, 1.587786)">
                        <mask id="mask-6" fill="white">
                            <use xlink:href="#path-5"></use>
                        </mask>
                        <g id="Clip-7"></g>
                        <path d="M132.887583,66.7215573 C132.887583,29.922626 103.139917,0.0909007634 66.4437917,0.0909007634 C29.7476667,0.0909007634 0,29.922626 0,66.7215573 C0,85.2490382 8.79541667,101.450412 19.6618333,110.410687 C29.8933333,118.847389 47.9722292,123.310656 60.0875,118.238473 C61.0846042,117.820885 61.9867083,119.017679 61.3454583,119.889771 L52.5215417,131.887878 C57.0095,132.847298 61.6704375,133.327206 66.4437917,133.328 L66.4437917,133.352214 C67.6000208,133.352214 68.749125,133.321649 69.8907083,133.264092 C69.9077292,133.263298 69.9243542,133.263298 69.9417708,133.262504 L69.941375,133.260122 C105.011417,131.435359 132.887583,102.344336 132.887583,66.7215573" id="Fill-6" fill="url(#linearGradient-7)" mask="url(#mask-6)"></path>
                    </g>
                </g>
                <g id="1122222" transform="translate(21.000000, 11.000000)">
                    <path d="M57.4075648,42.5872491 C55.666047,44.414532 54.5599479,46.3823752 52.6536919,47.5771371 C51.9006031,48.0456712 51.2181164,48.3970718 50.912174,47.0851763 C49.6884047,48.1159513 48.4175674,48.8890326 47.1467301,49.6386871 C45.8052907,50.4117684 44.7933276,49.9198076 44.3226471,48.3970718 C43.7578305,46.6166423 44.0402388,44.9064928 44.3697152,43.14949 C45.0522019,39.5886309 46.2995052,36.2620389 48.4411014,33.2868475 C48.6529077,33.005727 48.8411799,32.7011799 49.1000541,32.4669128 C49.6178027,31.9280986 50.2532213,31.0378839 50.9827761,31.5532713 C51.5946607,31.974952 51.6181948,33.0291537 51.2416504,33.8256617 C49.4765985,37.5505077 48.4175674,41.486194 47.7586147,45.5624406 C47.7350807,45.7498542 47.7350807,45.9372678 47.7115467,46.1481082 C49.1941902,45.7498542 49.8766769,44.976773 50.1120172,43.3369036 C50.6062317,39.6589111 52.4183516,36.4260259 54.4658118,33.3571276 C54.9129582,32.6777532 55.4307068,32.8417401 55.9955234,33.0760071 C56.6780101,33.3571276 56.4897379,33.8490884 56.3014657,34.3410492 C55.4071727,36.5900128 54.3952097,38.792123 53.736257,41.1113667 C53.4067806,42.2358485 53.1243724,43.3603304 53.0773043,44.7190792 C54.1128014,43.782011 54.654084,42.7043826 55.2189005,41.6736076 C56.2543976,39.7526179 56.9604184,37.6676412 57.8076433,35.6763713 C58.3724599,34.3410492 59.1490827,33.1462872 59.8786374,31.9046719 C60.1845798,31.4127111 60.7023283,31.1550174 61.1965428,31.0378839 C61.9496316,30.8504702 61.9966997,31.3892844 61.9260976,31.974952 C61.9260976,31.9983787 62.1143698,32.0686588 62.2085059,32.0686588 C63.244003,32.1155123 63.0086627,32.8183134 62.8909926,33.4274077 C62.2791079,36.4494526 61.5966212,39.4480707 61.0318046,42.4701156 C60.6787943,44.2973985 60.443454,46.1715349 60.1845798,48.0222445 C60.0904437,48.6781922 59.9257055,49.33414 59.2196847,49.2404332 C58.513664,49.1467263 57.3134287,49.5449803 57.3840308,48.0456712 C57.4546329,46.3120951 57.4075648,44.6019457 57.4075648,42.5872491 Z" id="Path" fill="#FAB900"></path>
                    <path d="M49.3784833,65.6288 C48.5319904,66.0529467 48.3032085,66.5713482 48.3032085,67.3960779 C48.2803303,69.3754291 47.1821773,70.9070699 45.9009988,72.17951 C43.9563529,74.1117338 41.6914123,75.5255561 38.9002735,75.7611932 C38.351197,75.8083206 38.4655879,76.2089035 38.3283188,76.4681043 C38.1224151,76.8451236 37.8249987,77.0571969 37.3903131,76.9865058 C36.9556276,76.9393784 37.0013839,76.5859228 37.0013839,76.256031 C37.2301658,71.8967455 37.4818259,67.5610238 38.9002735,63.390248 C39.4264718,61.8350435 40.2500865,60.4212212 41.0508231,59.0073989 C41.6685342,57.8999048 42.8810781,57.9705959 43.6360583,57.1929936 C43.7962056,57.0280477 44.0707438,57.1929936 44.2537693,57.3815033 C44.5283076,57.6878314 44.4367948,58.041287 44.2995257,58.3711789 C43.6360583,60.0442019 43.1327381,61.7643524 42.6522962,63.4845029 C42.6065398,63.6258851 42.5836616,63.7672673 42.5379053,64.0264681 C43.5674237,63.7672673 44.4825512,63.3666843 45.4663133,63.5080666 C45.7637297,63.555194 46.1526589,63.555194 46.3356844,63.7437036 C47.3652028,64.7333792 47.9829139,63.9322132 48.6692595,63.2488658 C49.6072652,62.3298813 50.2707326,61.316642 50.5223927,59.9735108 C50.7969309,58.6068159 51.2544946,57.2636847 51.6434238,55.9205535 C51.8493275,55.1900787 52.1238658,54.6245498 52.9703587,55.3078972 C53.3135315,55.5906617 53.7482171,55.3078972 54.1371463,55.2843335 C54.7777355,55.2372061 55.2124211,55.5435343 54.8921264,56.1797543 C53.1762624,59.7378738 53.6795825,63.7201399 52.8330896,67.4432053 C52.2840131,69.8467032 51.7120584,72.2502011 50.68254,74.4887531 C50.4766363,74.9600272 50.2936108,75.7376294 49.6530215,75.5019924 C49.0353105,75.2899191 48.4404776,74.7950812 48.486234,73.8996605 C48.6692595,71.1662707 48.9209195,68.4328809 49.3784833,65.6288 Z M40,72 C41.9373581,70.9798014 43.1909427,69.9142606 43.7607539,68.4179694 C43.9316973,67.9645478 44.3305651,67.2617443 43.4473578,67.0577046 C42.6781126,66.8763359 41.7094336,67.1257178 41.424528,67.7605081 C40.8547168,69.0527596 40.5128301,70.3903533 40,72 Z" id="Combined-Shape" fill="#FAB900"></path>
                    <path d="M14.0002831,49.1277523 C14.0002831,47.842444 14.133939,46.9014147 14.5126306,46.098097 C15.8491894,43.2520572 17.6535436,40.7962002 20.5271448,39.4420361 C21.5295639,38.9829974 22.0419114,38.3862472 22.2869471,37.3534101 C22.5097069,36.4353328 22.7770187,35.4483996 24.0467494,36.366477 C24.1135774,36.4123808 24.2695092,36.3894289 24.3808891,36.3894289 C25.8956556,36.4812366 25.9402076,36.5041886 25.3610322,37.9042565 C25.1159964,38.4780549 25.3833081,38.4780549 25.7619998,38.6387184 C29.3484323,40.19945 31.0414067,43.0684417 29.3261563,46.809607 C27.9895976,49.7245026 25.8956556,51.7901767 22.9997784,52.8918695 C22.1532913,53.2131966 21.5741158,53.5804275 21.3290801,54.4755529 C21.2622521,54.6821204 21.1285963,54.8886878 21.0394923,55.0952552 C20.8167326,55.5313419 20.6162487,56.196948 20.0593493,55.9444767 C19.5470018,55.7379093 18.8787224,55.3247745 18.9901023,54.5673607 C19.1460342,53.5804275 18.6782386,53.4886198 17.9208554,53.3279562 C15.2700139,52.731206 13.9780072,51.1704744 14.0002831,49.1277523 Z M23,51 C25.4057474,50.1729058 27.568217,46.1149751 26.8654144,43.8921596 C26.5951057,43.0909121 26.0815192,42.5739782 25.3516857,42.1604312 C24.8380992,41.8761175 24.6759139,41.9536576 24.5948213,42.5222849 C24.24342,45.365421 23.7028026,48.1827105 23,51 Z M21,42 C18.879413,43.1534358 17.1286959,45.8960499 17.005406,47.9209706 C16.931432,49.2281979 17.6218557,50.3816337 18.7561231,50.8686399 C19.1259929,51.0224314 19.3479148,51.1505909 19.4218888,50.586689 C19.7917586,47.7671791 20.3835503,44.9989332 21,42 Z" id="Combined-Shape" fill="#FAB900"></path>
                    <path d="M29.285028,65.8039265 C30.2979072,65.5937412 31.2401204,65.5470333 32.1823337,65.6170951 C34.8676414,65.8506343 35.9276312,67.8590717 34.5143114,70.1477562 C32.6063296,73.2071201 29.7561346,75.1221418 26.5290543,76.5934389 C26.152169,76.7569164 25.6810624,76.7802703 25.5161751,77.2707027 C25.3748431,77.6910733 25.1157345,78.1581517 24.5975172,77.9479664 C24.1264106,77.7611351 23.7495253,77.3874723 23.4197506,76.9203938 C22.3362054,75.2622653 23.6788593,73.837676 23.7966359,72.319671 C24.0086339,69.6106159 24.7388492,66.9716226 25.798839,64.4493989 C25.9637264,64.0757362 26.081503,63.8655509 25.5161751,63.7254273 C25.1392898,63.6320116 24.9037365,63.0948714 25.1864004,62.90804 C25.9166157,62.4176076 25.9872817,61.4600968 26.6939416,61.0163723 C28.790366,59.7085526 31.0281225,58.68098 33.4778768,58.1905476 C33.9254281,58.0971319 34.4672007,57.8402387 34.844086,58.1438397 C35.2209713,58.4474407 35.9747419,58.3306711 35.9982972,58.961227 C36.0454079,59.87203 35.1031947,60.1289232 34.632088,60.7127713 C33.4778768,62.0906527 31.8054484,62.7679165 30.2036859,63.515242 C29.2379173,64.0056744 29.6383579,65.033247 29.285028,65.8039265 Z M31,69 C28.5116279,69.3243243 28.6976744,69.4864865 28,73 C29.3488372,72.1081081 30.4418605,70.6486486 31,69 Z" id="Combined-Shape" fill="#FAB900"></path>
                    <path d="M39.1419325,45.7088678 C38.5358436,46.4197005 37.9297547,47.1305333 37.3469769,47.8642961 C36.531088,48.8961501 35.5986435,49.7904235 34.4330879,50.4783262 C33.8969323,50.7993474 33.617199,50.6846969 33.1276656,50.180235 C31.5891322,48.6439191 31.9387989,46.9241625 32.3583989,45.1814758 C33.1276656,42.0400537 34.6428879,39.2196528 36.4145324,36.4909723 C36.8807547,35.7572095 37.4169102,35.7572095 38.0929325,36.0782307 C38.815577,36.422182 38.4892214,36.9495741 38.2794214,37.454036 C37.1837991,40.1827165 35.901688,42.8426068 35.3655324,45.754728 C35.2722879,46.2591899 35.2256657,46.7636519 35.1091101,47.6120651 C36.6709547,45.8923085 37.5101547,44.1496218 38.2794214,42.384005 C39.1186214,40.4578776 39.7247103,38.4400298 40.8436437,36.6285528 C41.3797993,35.7572095 41.729466,34.6794953 42.8017772,34.1979635 C43.384555,33.9457325 43.8740883,33.7852219 43.8973994,34.6794953 C43.8973994,34.8170759 43.7808439,35.0463767 44.013955,35.0463767 C45.5058662,35.0922369 44.8997772,36.0782307 44.7599106,36.7661334 C43.9673328,41.0311298 42.8017772,45.250266 42.2889327,49.5840527 C42.2656216,49.8592138 42.2189993,50.1114447 42.1956882,50.3866058 C42.0558216,51.8082713 41.1699993,52.3585934 39.8878881,51.7624111 C39.3983548,51.5331102 39.444977,51.0745084 39.444977,50.6617669 C39.4216659,49.0337306 39.444977,47.4286244 39.444977,45.8005881 C39.3517326,45.7776581 39.2584881,45.754728 39.1419325,45.7088678 Z" id="Path" fill="#FAB900"></path>
                    <path d="M86.380683,59.508659 C85.5615873,60.4796033 84.9297136,61.2424881 84.2978398,62.0053729 C83.7595769,62.6757868 83.2213141,63.3462007 82.5192321,63.8316728 C81.9107611,64.2477918 81.1852764,65.2187361 80.5534026,64.7101462 C79.8513206,64.1784387 79.0556277,63.4155539 79.0088223,62.3059032 C78.9620168,61.1500172 79.1024332,60.0172488 79.4066687,58.8844805 C80.2257644,55.9254122 81.6299283,53.2437565 83.2915223,50.6776895 C83.7361742,50.0072756 84.1808261,49.6836275 84.976519,50.053511 C85.8424201,50.46963 85.4211709,51.047573 85.1871436,51.6023983 C83.9936043,54.5614666 82.6128431,57.4511818 82.1681911,60.664545 C82.1213857,60.91884 82.1213857,61.1962526 82.0745802,61.5892539 C83.0808977,60.7338982 83.5957578,59.7167185 84.1574234,58.7226565 C85.2105463,56.8270033 85.9126283,54.7926438 86.7317239,52.8045198 C87.3167922,51.4174565 88.0890824,50.1459819 88.8847753,48.8745072 C89.1656081,48.4352705 89.6570655,48.227211 90.1251201,48.065387 C90.8740076,47.811092 90.9676185,48.3427996 90.9442158,48.8976249 C90.9442158,48.9669781 91.0846322,49.059449 91.1782431,49.059449 C92.324977,49.1288021 91.973936,49.9379224 91.8569223,50.4927477 C91.3654649,53.0125793 90.8037994,55.5324109 90.2655365,58.0522425 C89.7974819,60.2715438 89.4230382,62.5139627 89.1890108,64.7794994 C89.1188026,65.4499133 88.9783862,66.1203272 88.1592906,65.9816209 C87.4338059,65.8660323 86.4040857,66.2127981 86.4274884,64.7101462 C86.4508912,63.1150235 86.287072,61.4505476 86.380683,59.508659 Z" id="Path" fill="#FAB900"></path>
                    <path d="M68.1508296,64.4074758 C69.7266625,62.9064264 70.607275,61.0589811 71.3951915,59.1884427 C72.4148481,56.7405776 73.2722866,54.2465263 74.8017716,52.052685 C75.1725558,51.5215444 75.6823841,51.359893 76.1458644,51.03659 C76.2385604,50.9673108 76.4471265,51.0134969 76.5861706,51.03659 C77.211869,51.1289623 76.5398226,52.0988711 77.4899572,52.1681503 C78.3010477,52.2143364 77.9302634,53.091873 77.8143934,53.5999204 C77.211869,56.6020192 76.5398226,59.6041179 75.9604722,62.6293096 C75.6360361,64.3612897 75.4042959,66.1163628 75.1725558,67.8714358 C75.0798597,68.5180417 74.8712936,69.1184615 74.1760732,68.9799031 C73.5272008,68.8413447 72.4843702,69.3262991 72.4380221,67.8714358 C72.4148481,66.185642 72.3453261,64.5229411 72.3453261,62.5369374 C71.5574096,63.4837531 70.9317112,64.1996382 70.3291869,64.9617094 C69.5180964,66.0008974 68.5911358,66.901527 67.4324351,67.594319 C66.8994328,67.917622 66.6445187,67.7790636 66.1346904,67.2941092 C64.6052054,65.7699668 64.9296416,64.0841729 65.3467739,62.3752859 C66.1115163,59.1191635 67.6410013,56.209437 69.4717484,53.438269 C69.9584027,52.7223839 70.491405,52.8840354 71.0475813,53.114966 C71.6964537,53.3920828 71.4878876,53.9001303 71.3024955,54.3850847 C70.1206208,57.2948112 68.7765279,60.1583515 68.2666996,63.2990086 C68.2203516,63.6454046 68.1971776,64.0379867 68.1508296,64.4074758 Z" id="Path" fill="#FAB900"></path>
                    <path d="M63.0183194,46.3378611 C63.653559,40.4126451 65.3550935,34.9271912 69.4841506,30.4601338 C69.6883347,30.2286801 69.915206,30.0203717 70.1420773,29.8352087 C71.5713663,28.5622131 71.6394277,28.7242307 72.5469127,30.4601338 C73.318275,31.9414378 73.9535146,33.3995965 74.1123245,35.0660635 C74.1803859,35.6909886 74.566067,35.3669533 74.8609997,35.2743718 C75.269368,35.1354996 75.7004234,34.9966273 75.9272946,35.528971 C76.1314788,36.0150238 75.8819204,36.3853498 75.4735521,36.5705128 C74.3618829,37.0565657 74.1576987,37.9129446 74.2257601,39.0702134 C74.3165086,40.4820812 74.1803859,41.9170945 74.1350116,43.3289624 C74.1123245,43.7455791 74.1123245,44.1621959 73.840079,44.5325219 C73.6358948,44.8102664 73.4090235,44.9491386 73.0687166,44.9259932 C72.6830355,44.8797025 72.6603484,44.601958 72.5695999,44.2779227 C72.1612316,42.8429095 71.5486791,41.4773324 71.4125564,39.9497376 C71.3671821,39.417394 71.1176237,39.5562662 70.8226911,39.7645746 C69.1438437,40.9449887 67.419622,42.0328214 66.7163211,44.1853412 C66.3760142,45.2037377 65.7861489,46.1064074 65.3097192,47.0553678 C65.1282222,47.4025484 64.9467252,47.749729 64.5383569,47.8423105 C62.9956323,48.1432004 62.950258,48.1894911 63.0183194,46.3378611 Z M69,36 C71.1373289,35.2748538 71.3017388,34.8538012 70.6910734,32 C69.9629723,33.2631579 69.4227683,34.502924 69,36 Z" id="Combined-Shape" fill="#FAB900"></path>
                    <path d="M1.01324444,57.6491233 C1.35547867,53.3899432 2.83849369,48.8066952 5.59918317,44.6632537 C6.26083603,43.6679019 7.03656696,42.7882886 7.92637597,41.9781185 C9.50065344,40.5198123 9.54628467,40.6818463 10.5729874,42.5336637 C11.3715339,43.9919699 11.9191087,45.4271284 12.1244492,47.0243209 C12.1928961,47.6956047 12.5807615,47.3020935 12.8545489,47.2326504 C13.26523,47.1169118 13.6987267,46.9548778 13.9268829,47.4872753 C14.1322234,47.9733773 13.8812516,48.3437408 13.4705706,48.5289226 C12.3526054,49.0150246 12.1472649,49.8714902 12.2157117,51.0288761 C12.3069742,52.4871823 12.1700805,53.9454885 12.1244492,55.4269424 C12.1244492,55.9130445 12.0560024,56.3759988 11.6681369,56.6769191 C11.189009,57.0472826 10.7326967,57.0704303 10.5729874,56.3528511 C10.2307531,54.8945449 9.52346906,53.5519773 9.43220659,52.0242279 C9.40939098,51.4686827 9.20405044,51.4686827 8.81618497,51.7464553 C7.12782942,52.9269889 5.39384263,54.0149316 4.68655855,56.1676694 C4.36713993,57.1398735 3.77393393,58.0194868 3.31762161,58.9453955 C3.13509669,59.2926112 2.95257176,59.6166793 2.58752192,59.7787133 C1.28703183,60.3111108 0.921981977,59.9870428 1.01324444,57.6491233 Z M8.88218942,44 C8.04566079,45.2195122 7.36598128,46.5121951 7,48 C9.14360462,47.4390244 9.14360462,47.4390244 8.88218942,44 Z" id="Combined-Shape" fill="#FAB900"></path>
                    <path d="M18.4286537,64.6814668 C21.1801526,64.4766224 22.1191561,65.5008447 21.9881324,68.2548648 C21.9007832,70.0074231 21.289339,71.5778974 20.5250338,73.0800902 C19.7388913,74.673325 18.6907012,76.0844758 17.708023,77.5183871 C16.8563686,78.7474539 15.5461311,79.2937058 14.2795681,79.8399577 C13.2750527,80.2724072 12.4233982,79.7944367 11.8993032,78.8157354 C11.0258115,77.2225006 10.8292759,75.5382238 11.134998,73.7629051 C11.7901168,70.0301836 13.449751,66.7754325 15.764504,63.8848494 C16.1139007,63.4524 16.4632974,62.9289086 17.1184161,63.361358 C17.3804637,63.5206815 17.5333247,63.361358 17.6861858,63.224795 C18.0137451,62.9971901 18.3631418,62.8606271 18.6688639,63.224795 C19.0400979,63.634484 18.7780504,63.9758914 18.4941656,64.3172989 C18.4723283,64.3855804 18.4723283,64.5221434 18.4286537,64.6814668 Z M21,67.1609193 C20.9319405,66.8093374 21.1361189,66.2468064 20.6823892,66.0592961 C20.1832865,65.8249082 19.8656757,66.3405616 19.5480649,66.6452659 C17.1886705,68.9657062 17.120611,72.3174533 16.0316597,75.2238634 C15.9182273,75.5051289 16.1224057,75.8567107 16.4400165,75.9739047 C16.7576273,76.0910987 16.9164327,75.7863944 17.075238,75.598884 C18.3003083,74.0519238 19.2985136,72.3643309 20.0925406,70.559544 C20.5689568,69.5047984 20.9319405,68.4031752 21,67.1609193 Z" id="Combined-Shape" fill="#FAB900"></path>
                    <path d="M0.00976669288,77.8114307 C0.00976669288,77.7422004 -0.0122083661,77.6498933 0.00976669288,77.580663 C0.844818934,74.649913 0.603093285,71.4883953 1.78974647,68.6268756 C2.64677377,66.5961197 3.63565142,64.6807476 5.63538179,63.6422929 C6.95388533,62.9499898 8.33831404,62.626915 9.56891735,63.6653697 C10.8434708,64.7269012 11.2390218,66.2499681 10.8654458,67.9114957 C10.7116204,68.580722 10.4918698,69.2268716 10.2940943,69.896098 C10.0303936,70.7730153 9.63484252,71.0960901 8.66793993,70.703785 C7.96473804,70.403787 7.83288769,70.1268657 8.07461334,69.4576394 C8.20646369,69.088411 8.58003969,68.580722 8.20646369,68.3038008 C7.81091263,68.0038027 7.39338651,68.5114917 7.08573568,68.788413 C5.23983073,70.403787 3.24010036,71.9037771 2.71269895,74.6268362 C2.38307306,76.3345173 2.62479871,77.2114346 3.63565142,77.7191236 C4.64650414,78.2268126 6.31660862,77.8114307 7.1296858,76.7960527 C7.39338651,76.4729779 7.6131371,76.1268263 7.85486275,75.7806748 C8.09658839,75.4576 8.40423922,75.4345232 8.7338651,75.5960606 C9.06349099,75.7806748 9.04151593,76.1037496 8.93164064,76.4037476 C8.22843875,78.4345035 7.08573568,80.1652614 5.4156312,81.411407 C4.36082837,82.1960173 3.13022507,82.1729405 1.987522,81.4806374 C0.647043403,80.6960271 -0.0341834251,79.4498815 0.00976669288,77.8114307 Z" id="Path" fill="#FAB900"></path>
                    <path d="M58.8938891,57.7236432 C57.8875935,58.2206192 57.0250545,58.6702642 56.138556,59.1199091 C55.7791648,59.3092333 55.3718547,59.4985575 55.1083011,59.0015815 C54.9166257,58.6229331 54.9645445,58.1496226 55.3718547,57.9602984 C55.9708401,57.6999777 56.0906372,57.1793361 56.2343937,56.6823601 C56.426069,55.9723944 56.881298,55.5700805 57.5042428,55.2150976 C60.0679006,53.7715007 62.5836395,52.2332416 65.6504449,52.0202519 C66.2015116,51.9729208 66.7525782,52.0202519 67.3276042,52.0439174 C67.6151172,52.0439174 67.8786708,52.162245 67.9745085,52.4698968 C68.0703462,52.8012142 67.8786708,53.061535 67.6869955,53.3218557 C66.7765376,54.6234595 65.4587696,55.2624287 63.9972451,55.7120736 C63.3982597,55.9013978 63.1586655,56.3273773 62.9190713,56.8480188 C61.3856686,60.6108371 60.1397788,64.4683175 59.2532804,68.4204601 C59.0136862,69.5327397 58.0553095,70.313702 58.0553095,71.4969782 C58.0553095,71.80463 57.6240399,72.0412852 57.2167298,71.9939542 C56.7375415,71.9229576 56.7375415,71.5443092 56.7375415,71.1893264 C56.7135821,70.4556951 57.0490139,69.6510673 56.1864749,69.0830947 C55.8989618,68.9174361 56.138556,68.4914566 56.2104343,68.2074703 C57.0729733,64.7759694 57.9594718,61.3444684 58.8938891,57.7236432 Z" id="Path" fill="#FAB900"></path>
                    <path d="M24.6129237,6.38104012 C24.5891457,7.86767256 25.3738176,9.19420613 25.8969321,10.4978684 C26.301157,11.5499468 26.0395997,13.0137079 27.347386,13.7227173 C27.5138316,13.8142023 27.6327212,14.1344001 27.6089433,14.3173702 C27.3236081,15.9412303 27.9656123,17.4964765 27.9893902,19.0974653 C28.060724,21.4989485 27.7516109,23.8775604 27.6802771,26.2561723 C27.6802771,26.5306275 27.7753888,26.9194391 27.3236081,26.9880529 C26.8718274,27.079538 26.8956053,26.6221126 26.7053818,26.4162712 C26.0633776,25.6386481 26.0395997,24.6551835 25.944488,23.7632041 C25.8255983,22.3680567 25.0409265,21.2473645 24.5415899,20.0123161 C24.2800326,19.3490493 24.2324767,18.6171687 24.1135871,17.9081594 C23.8520298,16.4672695 23.2813594,15.0949934 22.8771345,13.7227173 C22.35402,11.9845009 21.4504585,10.4063834 21.0700116,8.64529569 C20.8084543,7.4102472 21.284013,6.63262407 22.4253538,6.12945617 C23.2100256,5.90074349 23.9471415,5.96935729 24.6129237,6.38104012 Z" id="Path" fill="#FAB900"></path>
                    <path d="M45.5063383,0 C46.3934705,0 47.0809981,0.977760283 46.9922848,2.21160064 C46.9701065,2.53752074 46.859215,2.88672084 46.7261452,3.21264093 C46.1716875,4.58616133 45.7281213,5.95968173 45.6615864,7.51944218 C45.5728732,9.40512273 44.5526711,11.0580032 44.04257,12.8505637 C43.4437557,14.9457643 42.2904837,16.8081649 41.8690959,18.9964855 C41.6251345,20.2070459 40.9597853,21.3710462 40.6271107,22.6281666 C40.5605758,22.8609666 40.4496842,23.0704867 40.1613662,22.9773667 C39.8952266,22.8842466 40.0282964,22.6514466 40.072653,22.4884865 C40.5605758,20.3234459 40.360971,18.0885652 40.8045372,15.9002446 C41.0263202,14.8060843 41.0928551,13.6188039 41.0041419,12.5013636 C40.8710721,10.5458431 41.7360261,8.84640256 42.090879,7.03056204 C42.1795922,6.5416819 42.4013753,6.07608176 42.3570187,5.58720162 C42.1795922,3.74808109 43.1997943,2.30472067 43.7986086,0.721680209 C44.1091049,0.0698400202 44.840989,0 45.5063383,0 Z" id="Path" fill="#FAB900"></path>
                    <path d="M35.3782481,86.3006939 C35.4906294,89.0069389 35.8727257,91.7363143 35.6030107,94.3962988 C35.4456768,95.9460288 36.0750121,97.2644559 35.8727257,98.7910557 C35.5805344,101.150346 35.6030107,103.579028 35.7828207,105.961449 C35.8727257,107.233615 36.2098696,108.436391 35.805297,109.708557 C35.4906294,110.68003 35.1759618,111.674633 35.0860567,112.715496 C34.9961517,113.710099 34.1645302,114.172705 33.1980511,113.941402 C32.321477,113.733229 32.2090957,113.154972 32.0742382,112.22976 C31.8269994,110.68003 32.2765245,109.245951 32.2765245,107.765612 C32.2990008,106.354664 32.928336,104.943715 33.0856698,103.509637 C33.4677662,100.202004 34.0521489,96.9406317 34.3668165,93.6329989 C34.6140553,91.0886659 34.5466265,88.4980724 35.1534855,86 C35.3782481,86.0462606 35.5131056,86.0693909 35.3782481,86.3006939 Z" id="Path" fill="#FAB900"></path>
                    <path d="M15,33 C13.0031626,32.2031129 12.1057076,30.3354088 11.051198,28.7416347 C10.6473433,28.1190666 10.2883613,27.4466931 9.70501551,27.0731523 C8.85243326,26.5252925 8.26908751,25.6536972 7.48381438,25.0062265 C6.85559588,24.4832693 6.92290501,23.711285 7.21457788,22.989106 C7.61843263,22.0178999 8.44857851,21.918289 9.21141526,22.0428026 C11.051198,22.3167326 12.5993079,24.3587557 13.2499628,26.301168 C13.9454904,28.4677047 14.4390906,30.6342415 15,33 Z" id="Path" fill="#FAB900"></path>
                    <path d="M56,22 C56.023137,20.9443148 56.3933296,20.1148479 56.8560702,19.5115993 C57.8278256,18.2799666 58.6838958,16.8975217 59.1003623,15.4396708 C59.539966,13.8561431 60.8356398,12.9764055 61.2983804,11.4934192 C61.5066137,10.7644937 62.1544506,11.066118 62.5940542,11.0409827 C63.4501244,11.0158473 64.4450168,11.066118 64.8614834,11.9961264 C65.254813,12.875864 64.7457983,13.6299248 64.1442354,14.3839857 C62.4783691,16.5456267 60.1646658,17.8526655 58.3599773,19.8132236 C57.6427293,20.5672844 56.9023443,21.2710745 56,22 Z" id="Path" fill="#FAB900"></path>
                    <path d="M66.1167913,84 C66.8064164,84.1862186 67.2513358,84.7448746 67.6295172,85.2802532 C68.7195697,86.7700024 70.4102634,87.7010956 71.1221344,89.5632821 C71.3223481,90.121938 71.8562514,90.6107619 72.3456627,90.9831992 C73.2577474,91.6815192 73.0797797,92.4962257 72.6348603,93.2643777 C72.1899409,94.0325296 70.8551828,94.2187482 70.1655577,93.7299243 C69.2089811,93.078159 68.7418157,92.0539565 68.3191423,91.0064766 C67.5182874,88.9347941 66.4727268,86.9329437 66.1167913,84.6750426 C65.9610696,84.4655466 65.9610696,84.2327733 66.1167913,84 Z" id="Path" fill="#FAB900"></path>
                    <path d="M14.6589994,96.8666236 C13.7693551,97.1662206 12.9499459,96.9588073 12.3646536,96.2674295 C11.9666548,95.7834651 11.7793613,95.184271 12.411477,94.7003065 C13.8161785,93.617148 14.7994695,92.1422087 15.8061723,90.7364073 C16.438288,89.8606621 17.1874621,89.1001465 17.8898128,88.316585 C18.1473415,88.016988 18.4282818,87.8787124 18.8028688,88.1322176 C19.2242793,88.4087687 18.8496922,88.6622739 18.7794571,88.9157791 C18.5453402,89.8376161 18.0068713,90.6211776 17.3981673,91.3356013 C16.5787581,92.2804843 17.0235802,93.5941021 16.3446412,94.5850769 C16.0871126,94.9538117 15.8764074,95.3686384 15.5954671,95.7143273 C15.4315852,96.2213377 15.1740566,96.6361643 14.6589994,96.8666236 Z" id="Path" fill="#FAB900"></path>
                    <path d="M81.1623492,79.2121135 C83.1653986,79.5458353 85.1448826,79.6014556 87.1479319,79.0452527 C87.8548905,78.8505816 88.4440227,79.295544 88.8210673,80.1576585 C89.1981119,81.0197731 88.9153284,81.7428369 88.5618491,82.3546601 C88.2083698,82.9386732 87.7134988,83.1055341 86.9594097,82.9386732 C84.6264463,82.3546601 82.4348747,81.1588238 80.0547808,80.8251021 C79.7719973,80.7694818 79.4420833,80.5748107 79.2299957,80.3245194 C78.9707776,80.0186078 78.8058206,79.6014556 79.4420833,79.490215 C80.0076502,79.4067846 80.5967823,79.295544 81.1623492,79.2121135 Z" id="Path" fill="#FAB900"></path>
                    <path d="M86.6319009,44.0781151 C87.8343671,44.5659113 89.0368333,44.4386601 89.902609,43.1873568 C90.0709543,42.954063 90.3835955,42.954063 90.6481381,43.1025227 C90.9848286,43.272191 91.0569766,43.5479018 90.9607793,43.8236127 C90.5519408,44.8840392 90.0950036,45.9656742 89.0368333,46.6655557 C87.7862685,47.4926884 85.4294347,46.6867643 85.0446455,45.3294183 C84.8282016,44.5659113 85.4053854,44.0144895 86.6319009,44.0781151 Z" id="Path" fill="#FAB900"></path>
                    <path d="M51.8672618,87 C52.5841837,88.7594504 53.2755012,90.3019822 53.8644014,91.868616 C54.3508841,93.1701273 53.4803361,94.1101076 52.0208879,93.9895973 C49.998144,93.8208829 49.56287,93.1701273 50.4078137,91.3865748 C51.0479225,90.0368595 51.4319878,88.614838 51.8672618,87 Z" id="Path" fill="#FAB900"></path>
                    <path d="M24,6.19520548 C23.3406593,6.09046074 22.6813187,6.00067953 22,6.0306066 C22.7472527,5.68644529 23.4065934,5.7313359 24,6.19520548 Z" id="Path" fill="#FBA9A7"></path>
                    <path d="M15,97 C15.325,96.66 15.675,96.34 16,96 C16,96.54 15.875,97 15,97 Z" id="Path" fill="#FA9C9A"></path>
                    <path d="M35.0203731,86 C34.9568757,85.9183673 34.8933784,85.8571429 34.8510468,85.7755102 C34.829881,85.5306122 34.6817205,85.244898 35.0627046,85 C35.2743625,85.3673469 35.2108651,85.6938776 35.0203731,86 Z" id="Path" fill="#F51814"></path>
                    <path d="M66,83.2484848 C66,83.4909091 66,83.7333333 66,84 C65.7419355,83.6848485 65.516129,83.3454545 65,83.1515152 C65.4516129,82.9818182 65.7741935,82.8848485 66,83.2484848 Z" id="Path" fill="#F61C17"></path>
                    <path d="M34.1898663,68 C34.2206488,68.5084746 34.11291,68.7457627 33.8050847,69 C33.8512585,68.6271186 33.8820411,68.3559322 34.1898663,68 Z" id="Path" fill="#FDDDDD"></path>
                    <path d="M66,38.1818182 C65.8235294,38.5090909 65.6470588,38.8363636 65,39 C65.2352941,38.6727273 65.5,38.3272727 65.7352941,38 C65.8823529,38.0363636 65.9705882,38.1090909 66,38.1818182 Z" id="Path" fill="#F85B57"></path>
                    <path d="M66.3229692,37 C66.2153128,36.9189189 66.1076564,36.8108108 66,36.7297297 C66.2511983,36.2432432 66.538282,35.7567568 66.9330222,35 C67.2201059,35.972973 66.5023965,36.4324324 66.3229692,37 Z" id="Path" fill="#F96F6C"></path>
                    <path d="M3,50 C3.09090909,49.3012048 3.36363636,48.6746988 4,48 C3.96969697,48.8915663 3.48484848,49.4457831 3,50 Z" id="Path" fill="#F86D6A"></path>
                    <path d="M5.19491525,47 C5.17727068,47.3846154 5.12433696,47.6153846 4.80673464,48 C4.78909007,47.4807692 4.91260208,47.2692308 5.19491525,47 Z" id="Path" fill="#F63733"></path>
                    <path d="M3.1317489,52.2666667 C3.11253337,52.5333333 3.18939552,52.8444444 2.80508475,53 C2.86273136,52.6222222 2.90116244,52.2888889 3.11253337,52 C3.20861106,52.0666667 3.2278266,52.1555556 3.1317489,52.2666667 Z" id="Path" fill="#F7403C"></path>
                    <path d="M2.8292854,52 C2.8292854,51.8894986 2.80508475,51.7789972 2.80508475,51.6684957 C2.85348606,51.4198675 2.73248278,51.1159886 3.02289065,51.0054872 C3.07129196,50.9778619 3.19229524,51.0607379 3.19229524,51.1159886 C3.2164959,51.4751183 3.07129196,51.7513718 2.8292854,52 Z" id="Path" fill="#F74642"></path>
                    <path d="M8.06890228,66.689895 C8.13014876,66.5883323 8.19139523,66.419061 8.27305719,66.3513525 C8.49762759,66.2159355 8.80385996,65.6742675 8.96718389,66.283644 C9.13050781,66.9607291 8.64053603,66.7237493 8.45679661,66.9268748 C8.35471916,67.0284376 8.19139523,66.9945833 8.06890228,66.9945833 C8.00765581,66.9268748 7.98724032,66.8591663 8.00765581,66.7576035 C8.0280713,66.7576035 8.04848679,66.689895 8.06890228,66.689895 Z" id="Path" fill="#FDDEDD"></path>
                    <path d="M8,67 C8,67.1067344 8,67.249047 8,67.3557814 C7.78378378,67.8182973 7.45945946,68.0317662 7,67.9961881 C7.13513514,67.249047 7.54054054,67.1067344 8,67 Z" id="Path" fill="#FCCECD"></path>
                    <path d="M7.02222222,65.0650572 C7.22222222,64.7161085 7.55555556,64.7982141 8,64.8597933 C7.64444444,65.0855836 7.35555556,65.2292684 7,65.1882156 C7,65.1471628 7,65.10611 7.02222222,65.0650572 Z" id="Path" fill="#F86966"></path>
                    <path d="M7,64.8076004 C7,64.8413052 6.96774194,64.87501 6.96774194,64.9087148 C6.80645161,65.1109435 6.48387097,65.1446483 6,65.1952055 C6.12903226,64.8413052 6.48387097,64.790748 7,64.8076004 Z" id="Path" fill="#F86965"></path>
                </g>
            </g>
        </g>
    </g>
</svg>
