<svg width="65" height="7" viewBox="0 0 65 7" fill="none" xmlns="http://www.w3.org/2000/svg">
<path fill-rule="evenodd" clip-rule="evenodd" d="M55.7116 4.66667L51.0674 0L46.4232 4.66667L41.779 0L37.1348 4.66667L32.4907 0L27.8465 4.66667L23.2023 0L18.5581 4.66667L13.9139 0L9.2697 4.66667L4.6255 0L0 4.64655V7L4.64419 2.33333L9.28838 7L13.9326 2.33333L18.5768 7L23.221 2.33333L27.8652 7L32.5093 2.33333L37.1535 7L41.7977 2.33333L46.4513 7L51.0955 2.33333L55.7397 7L60.3838 2.33333L65 6.96983V4.65661L60.3652 0L55.7116 4.66667Z" fill="#D8D8D8"/>
</svg>
