<svg width="22" height="22" viewBox="0 0 22 22" fill="none" xmlns="http://www.w3.org/2000/svg">
<rect x="0.5" y="0.5" width="21" height="21" fill="white" stroke="#F6120D"/>
<path fill-rule="evenodd" clip-rule="evenodd" d="M8.06222 13.1554C8.06222 12.8233 7.97732 12.5543 7.87242 12.5543C7.76767 12.5543 7.68262 12.8233 7.68262 13.1554C7.68262 13.4874 7.76767 13.7564 7.87242 13.7564C7.97732 13.7564 8.06222 13.4874 8.06222 13.1554Z" fill="#F6120D"/>
<path fill-rule="evenodd" clip-rule="evenodd" d="M17.4274 6H5.33065C4.59681 6 4 6.61523 4 7.34892V7.57258H18.7581V7.34892C18.7581 6.61523 18.1613 6 17.4274 6Z" fill="#F6120D"/>
<path fill-rule="evenodd" clip-rule="evenodd" d="M8.73261 14.2056C9.16057 14.206 9.54599 13.9465 9.70681 13.5501C9.86763 13.1535 9.77186 12.6989 9.46456 12.4011C9.15726 12.1032 8.70001 12.0215 8.30859 12.1946C8.73214 12.7649 8.73214 13.5455 8.30859 14.1159C8.44216 14.1751 8.5866 14.2056 8.73261 14.2056Z" fill="#F6120D"/>
<path fill-rule="evenodd" clip-rule="evenodd" d="M5.33065 16C4.59681 16 4 15.3848 4 14.6511V10.3549H18.7581V14.6511C18.7581 15.3848 18.1613 16 17.4274 16H5.33065ZM7.87239 11.7898C7.61501 11.6266 7.31653 11.5401 7.01175 11.5403C6.32532 11.5403 5.71387 11.9742 5.48737 12.6222C5.26087 13.2702 5.46894 13.9907 6.00589 14.4181C6.543 14.8456 7.2918 14.8867 7.87239 14.5207C8.54873 14.9479 9.43583 14.8154 9.95798 14.2096C10.4801 13.6037 10.4801 12.7068 9.95798 12.101C9.43583 11.4951 8.54873 11.3628 7.87239 11.7898Z" fill="#F6120D"/>
<path fill-rule="evenodd" clip-rule="evenodd" d="M4 8.13708H18.7581V9.79031H4V8.13708Z" fill="#F6120D"/>
<path fill-rule="evenodd" clip-rule="evenodd" d="M7.0113 14.2056C7.15746 14.2056 7.3019 14.1751 7.43547 14.1158C7.01177 13.5455 7.01177 12.7649 7.43547 12.1945C7.04406 12.0218 6.58712 12.1037 6.27998 12.4013C5.97299 12.6992 5.87722 13.1535 6.03788 13.5499C6.19854 13.9464 6.58366 14.2056 7.0113 14.2056Z" fill="#F6120D"/>
</svg>
