<svg width="18" height="18" viewBox="0 0 18 18" fill="none" xmlns="http://www.w3.org/2000/svg">
<path opacity="0.30106" fill-rule="evenodd" clip-rule="evenodd" d="M0 9C0 4.0374 4.0374 0 9 0C13.9626 0 18 4.0374 18 9C18 13.9626 13.9626 18 9 18C4.0374 18 0 13.9626 0 9ZM1.91486 9C1.91486 12.9068 5.09339 16.085 9 16.085C12.9066 16.085 16.0851 12.9068 16.0851 9C16.0851 5.09321 12.9066 1.91505 9 1.91505C5.09339 1.91505 1.91486 5.09321 1.91486 9Z" fill="#484848"/>
<path opacity="0.30106" fill-rule="evenodd" clip-rule="evenodd" d="M14.0725 9.03786H9.97294V3.95136C9.97294 3.52331 9.63662 3.17627 9.22182 3.17627C8.80702 3.17627 8.4707 3.52331 8.4707 3.95136V9.81295C8.4707 10.241 8.80702 10.588 9.22182 10.588H14.0725C14.4873 10.588 14.8236 10.241 14.8236 9.81295C14.8236 9.38491 14.4873 9.03786 14.0725 9.03786Z" fill="#484848"/>
</svg>
