<svg width="22" height="22" viewBox="0 0 22 22" fill="none" xmlns="http://www.w3.org/2000/svg">
<rect x="0.5" y="0.5" width="21" height="21" fill="white" stroke="#F6120D"/>
<path fill-rule="evenodd" clip-rule="evenodd" d="M6.34875 9.36495C7.00114 9.36495 7.53116 8.83554 7.53116 8.18249C7.53116 7.52924 7.00114 7 6.34875 7C5.6956 7 5.16602 7.52924 5.16602 8.18249C5.16602 8.83554 5.6956 9.36495 6.34875 9.36495Z" fill="#F6120D"/>
<path fill-rule="evenodd" clip-rule="evenodd" d="M8.17594 16.0656C7.86172 17.1566 6.85591 17.9579 5.66506 17.9579C4.22296 17.9579 3.0502 16.7851 3.0502 15.3434C3.0502 14.2762 3.69401 13.3577 4.61279 12.9518V11.8434C3.10816 12.2966 2.00879 13.6934 2.00879 15.3434C2.00879 17.3592 3.64896 18.9994 5.66503 18.9994C7.13425 18.9994 8.40062 18.1262 8.98128 16.8733L8.56845 16.0622C8.45257 16.0632 8.31833 16.0644 8.17594 16.0656Z" fill="#F6120D"/>
<path fill-rule="evenodd" clip-rule="evenodd" d="M11.6214 17.4692L10.0376 14.3553C9.91935 14.1223 9.68037 13.9756 9.41896 13.9756H7.39035V13.513H9.13625C9.31059 13.513 9.45713 13.4219 9.55179 13.2906C9.6133 13.2051 9.65706 13.1058 9.65706 12.9922C9.65706 12.7047 9.42415 12.4714 9.13625 12.4714H8.08442H7.39035V10.9025C7.39035 10.4709 7.0704 9.8609 6.34915 9.8609C5.77393 9.8609 5.30762 10.3273 5.30762 10.9025V14.3018C5.30762 14.8886 5.7833 15.3642 6.37011 15.3642H8.27901H8.99325L10.3841 18.0988C10.5063 18.3397 10.7502 18.4786 11.0033 18.4786C11.1094 18.4786 11.217 18.4544 11.3175 18.4029C11.6598 18.2293 11.7958 17.811 11.6214 17.4692Z" fill="#F6120D"/>
<path fill-rule="evenodd" clip-rule="evenodd" d="M10.3997 7.19901L9 3.07028H9.9663L10.8155 5.84619L11.7349 3.05856H12.508L13.4274 5.84619L14.2766 3.07028H15.2194L13.8198 7.19901H13.035L12.1097 4.5168L11.1844 7.19901H10.3997ZM17.808 7.24C17.2067 7.24 16.706 7.03601 16.3058 6.62801C15.9056 6.22002 15.7055 5.71735 15.7055 5.12C15.7055 4.52655 15.9066 4.02486 16.3087 3.61492C16.7109 3.20497 17.2223 3 17.8431 3C18.1984 3 18.4971 3.05759 18.7391 3.17276C18.9812 3.28794 19.2115 3.45289 19.4302 3.66762L18.8914 4.2884C18.7157 4.12832 18.5507 4.01217 18.3965 3.93994C18.2423 3.86772 18.0559 3.8316 17.8372 3.8316C17.4937 3.8316 17.2096 3.95556 16.9851 4.20348C16.7606 4.4514 16.6484 4.7569 16.6484 5.12C16.6484 5.47919 16.7606 5.78372 16.9851 6.03359C17.2096 6.28346 17.4937 6.4084 17.8372 6.4084C18.0559 6.4084 18.2452 6.36936 18.4053 6.29127C18.5654 6.21319 18.7352 6.09216 18.9148 5.92818L19.4887 6.54309C19.2662 6.78125 19.0251 6.95694 18.7655 7.07017C18.5058 7.18339 18.1867 7.24 17.808 7.24Z" fill="#F6120D"/>
</svg>
