<svg width="22" height="22" viewBox="0 0 22 22" fill="none" xmlns="http://www.w3.org/2000/svg">
<rect x="0.5" y="0.5" width="21" height="21" fill="white" stroke="#F6120D"/>
<path fill-rule="evenodd" clip-rule="evenodd" d="M5 15.9422V6.05785C5 5.47454 5.47454 5 6.05783 5H10.6441V17H6.05783C5.47454 17 5 16.5255 5 15.9422ZM7.86856 8.97631L6.85932 11.0001C6.77267 11.1738 6.84327 11.3849 7.01696 11.4715C7.06735 11.4966 7.12084 11.5085 7.17357 11.5085C7.30264 11.5085 7.42688 11.4372 7.48841 11.3138L7.8316 10.6257V12.8537C7.8316 13.0478 7.98898 13.2052 8.18312 13.2052C8.37725 13.2052 8.53463 13.0478 8.53463 12.8537V10.6256L8.87785 11.3138C8.93937 11.4372 9.06362 11.5085 9.19269 11.5085C9.2454 11.5085 9.29893 11.4966 9.3493 11.4715C9.52302 11.3849 9.59361 11.1738 9.50694 11L8.49777 8.97624L8.49545 8.97212C8.4938 8.96891 8.49221 8.96567 8.49045 8.96253C8.48908 8.96001 8.48757 8.95757 8.48607 8.95513C8.48534 8.95396 8.48462 8.95279 8.48391 8.95161L8.47738 8.94099L8.47304 8.93436C8.47116 8.9316 8.46915 8.92893 8.46713 8.92625C8.46636 8.92522 8.46558 8.92419 8.46481 8.92316L8.46404 8.92212C8.46156 8.91879 8.45908 8.91546 8.45649 8.91223L8.45291 8.90783C8.45033 8.90475 8.44761 8.90176 8.44489 8.89878C8.44435 8.89818 8.4438 8.89758 8.44325 8.89698C8.43999 8.89339 8.43678 8.88978 8.43338 8.88634L8.42996 8.88291C8.42676 8.87975 8.42341 8.87673 8.42005 8.8737L8.4193 8.87302C8.41571 8.86977 8.41215 8.86646 8.40845 8.86337L8.40409 8.85985C8.40052 8.85697 8.3968 8.85425 8.39309 8.85148C8.39195 8.85064 8.39082 8.84979 8.38969 8.84894C8.3871 8.847 8.38452 8.84506 8.38184 8.84323L8.37538 8.83899C8.37248 8.8371 8.36952 8.83532 8.36655 8.83353C8.36592 8.83315 8.36528 8.83277 8.36464 8.83238C8.36355 8.83172 8.36246 8.83105 8.36138 8.83038C8.35881 8.8288 8.35626 8.82722 8.35362 8.82577L8.3443 8.82092L8.34005 8.81853C8.33795 8.8175 8.33577 8.81675 8.33366 8.81574C8.33253 8.81521 8.33141 8.81466 8.33029 8.81411C8.32813 8.81305 8.32597 8.81199 8.32377 8.81103C8.31997 8.80939 8.3161 8.80791 8.31226 8.80639L8.30073 8.8021L8.29205 8.79901C8.28807 8.7977 8.28402 8.79657 8.27996 8.79542L8.26723 8.792L8.25859 8.78991L8.2472 8.78771C8.2427 8.78689 8.23822 8.78607 8.2337 8.78541L8.22355 8.7841L8.21349 8.78314L8.21202 8.78302C8.20808 8.78268 8.20414 8.78234 8.2002 8.78216L8.18766 8.78185L8.18319 8.78162L8.17836 8.78185L8.16678 8.78213C8.16205 8.78234 8.15734 8.78274 8.1526 8.78316L8.14248 8.78417L8.13324 8.78534C8.12848 8.78602 8.12373 8.78687 8.11897 8.78776L8.10746 8.79003L8.09956 8.79193C8.09513 8.79301 8.09073 8.7942 8.08632 8.79547L8.08477 8.79591C8.08118 8.79693 8.07758 8.79796 8.07404 8.79912L8.06586 8.80205L8.05426 8.80637C8.0503 8.80791 8.04631 8.80944 8.04242 8.81115C8.04025 8.81209 8.03812 8.81313 8.036 8.81417C8.03489 8.81472 8.03379 8.81526 8.03267 8.81579C8.03056 8.8168 8.02838 8.81752 8.0263 8.81858L8.02231 8.82083L8.01256 8.82591C8.01006 8.8273 8.00762 8.82881 8.00519 8.83031C8.004 8.83104 8.00281 8.83178 8.00162 8.8325C7.9981 8.83461 7.99459 8.8367 7.99116 8.83892L7.98441 8.84335C7.98165 8.84524 7.97898 8.84725 7.97631 8.84926C7.97527 8.85004 7.97423 8.85083 7.97319 8.8516C7.96955 8.8543 7.9659 8.85697 7.96238 8.8598L7.95786 8.86346C7.95512 8.86575 7.95246 8.86817 7.94981 8.8706C7.94887 8.87145 7.94794 8.8723 7.94701 8.87314C7.94345 8.87635 7.93988 8.87954 7.93648 8.88289L7.93297 8.88641C7.92957 8.88985 7.92634 8.89346 7.92308 8.89707C7.92252 8.89769 7.92196 8.8983 7.9214 8.89892C7.91872 8.90185 7.91605 8.90478 7.91352 8.9078L7.90986 8.9123C7.90721 8.91558 7.9047 8.91897 7.90218 8.92237L7.90152 8.92327C7.90075 8.92431 7.89997 8.92534 7.8992 8.92637C7.89721 8.92902 7.89523 8.93167 7.89336 8.93438L7.88898 8.94106C7.8867 8.94455 7.88457 8.94814 7.88241 8.95173C7.88168 8.95295 7.88093 8.95417 7.88018 8.95538C7.87871 8.95776 7.87725 8.96014 7.8759 8.96258L7.87088 8.97219L7.86856 8.97631Z" fill="#F6120D"/>
<path fill-rule="evenodd" clip-rule="evenodd" d="M11.3467 5H15.9417C16.525 5 16.9996 5.47454 16.9996 6.05785V15.9421C16.9996 16.5254 16.525 17 15.9417 17H11.3467V5ZM14.13 13.0106L15.1392 10.9868C15.2259 10.8131 15.1553 10.602 14.9815 10.5154C14.8077 10.4287 14.5967 10.4993 14.5101 10.6731L14.1669 11.3612V9.1332C14.1669 8.93907 14.0095 8.78169 13.8154 8.78169C13.6212 8.78169 13.4638 8.93907 13.4638 9.1332V11.3612L13.1206 10.673C13.034 10.4993 12.8229 10.4287 12.6492 10.5154C12.4755 10.602 12.4049 10.8131 12.4915 10.9868L13.5008 13.0105L13.5037 13.0159L13.5081 13.0242L13.5112 13.0297C13.5143 13.035 13.5176 13.0402 13.5209 13.0453L13.525 13.0517L13.527 13.0547L13.5299 13.0587C13.5344 13.0649 13.5389 13.0709 13.5437 13.0767L13.5453 13.0786L13.5458 13.0791L13.5518 13.0861C13.5561 13.091 13.5605 13.0958 13.5651 13.1004L13.5685 13.1038L13.5687 13.104L13.5732 13.1086C13.5807 13.1157 13.5885 13.1224 13.5965 13.1288L13.6019 13.1328C13.6068 13.1366 13.6118 13.1403 13.6169 13.1438L13.6226 13.1475L13.6236 13.1482L13.6291 13.1517C13.6336 13.1546 13.6382 13.1572 13.6429 13.1598L13.6507 13.1642L13.6569 13.1674L13.6585 13.1683L13.6615 13.1696L13.6625 13.1701C13.6671 13.1723 13.6716 13.1745 13.6763 13.1765C13.6782 13.1774 13.6802 13.1781 13.6822 13.1789C13.6833 13.1793 13.6845 13.1798 13.6856 13.1802L13.6946 13.1837L13.6975 13.1849L13.7045 13.1871L13.716 13.1908C13.7209 13.1922 13.7258 13.1935 13.7308 13.1947L13.7396 13.1969L13.7415 13.1973L13.7485 13.1987C13.7563 13.2002 13.7641 13.2015 13.772 13.2025L13.7779 13.2032L13.7831 13.2036C13.7934 13.2046 13.8038 13.2052 13.8142 13.2053L13.8151 13.2053H13.8154H13.8156L13.8165 13.2053C13.8269 13.2052 13.8373 13.2046 13.8476 13.2036L13.8528 13.2032L13.8587 13.2025C13.8665 13.2015 13.8743 13.2002 13.8821 13.1987L13.8894 13.1973L13.8911 13.1969L13.9 13.1947C13.9049 13.1935 13.9098 13.1922 13.9147 13.1908L13.9263 13.1871L13.9331 13.1849L13.9364 13.1836L13.9448 13.1803C13.948 13.1791 13.9513 13.1779 13.9545 13.1765C13.9587 13.1747 13.9628 13.1727 13.967 13.1707L13.9691 13.1697L13.9723 13.1683L13.9739 13.1674L13.9799 13.1643L13.988 13.1597C13.9926 13.1572 13.9971 13.1546 14.0016 13.1518L14.0073 13.1481L14.008 13.1476L14.0139 13.1437C14.0189 13.1403 14.0238 13.1367 14.0287 13.133L14.0343 13.1287C14.0423 13.1224 14.05 13.1157 14.0574 13.1086L14.0622 13.1039L14.0658 13.1003C14.0702 13.0958 14.0746 13.0911 14.0789 13.0862L14.085 13.0791L14.0854 13.0787L14.0871 13.0768C14.0918 13.071 14.0964 13.0649 14.1008 13.0588L14.1038 13.0548L14.1058 13.0518L14.1099 13.0454C14.1132 13.0402 14.1165 13.0351 14.1196 13.0297L14.1227 13.0243L14.1271 13.016L14.13 13.0106Z" fill="#F6120D"/>
</svg>
