<svg width="22" height="22" viewBox="0 0 22 22" fill="none" xmlns="http://www.w3.org/2000/svg">
<rect x="0.5" y="0.5" width="21" height="21" fill="white" stroke="#F6120D"/>
<path fill-rule="evenodd" clip-rule="evenodd" d="M10.0431 9.16365C10.9123 9.16365 11.6194 8.45652 11.6194 7.58731C11.6194 6.71815 10.9123 6.01099 10.0431 6.01099C9.17393 6.01099 8.4668 6.71812 8.4668 7.58731C8.4668 8.45649 9.17393 9.16365 10.0431 9.16365Z" fill="#F6120D"/>
<path fill-rule="evenodd" clip-rule="evenodd" d="M14.6243 9.72345L7.92646 15.7827H4V17.989H8.5891L15.2869 11.9297H18.8406V9.72345H14.6243Z" fill="#F6120D"/>
<path fill-rule="evenodd" clip-rule="evenodd" d="M10.0547 9.60516C9.11342 9.60516 8.34766 10.3709 8.34766 11.3122V14.2289L11.7536 11.1477C11.6706 10.2833 10.9404 9.60516 10.0547 9.60516Z" fill="#F6120D"/>
<path fill-rule="evenodd" clip-rule="evenodd" d="M9.9082 17.9686H12.0004L17.7098 12.7993H15.6222L9.9082 17.9686Z" fill="#F6120D"/>
</svg>
