<svg width="22" height="22" viewBox="0 0 22 22" fill="none" xmlns="http://www.w3.org/2000/svg">
<rect x="0.5" y="0.5" width="21" height="21" fill="white" stroke="#F6120D"/>
<path fill-rule="evenodd" clip-rule="evenodd" d="M17.5653 16.801C17.784 17.0001 17.8593 17.4876 17.5768 17.7676C17.2962 18.0504 16.8077 17.9754 16.6096 17.757C14.7762 15.7883 12.9437 13.8187 11.1104 11.8493L10.9019 11.6269C8.98423 13.6858 7.06717 15.7457 5.1501 17.8055C4.95255 18.0236 4.46503 18.0989 4.18441 17.8161C3.9013 17.5358 3.97597 17.0471 4.19437 16.8489C6.26077 14.9268 8.32561 13.0042 10.3917 11.0812C10.3917 11.0812 9.39179 10.0026 8.96059 9.53963C7.95166 10.263 6.45646 9.98794 5.55766 8.87821C4.59103 7.7075 3.75726 5.61372 4.56428 4.7563C5.42263 3.94866 7.51517 4.7843 8.68588 5.74999C9.7953 6.64972 10.0719 8.14274 9.34699 9.1523C9.86655 9.63639 10.3861 10.1192 10.9063 10.603C10.905 10.6039 10.9044 10.6046 10.9032 10.6055C10.9032 10.6055 10.9355 10.631 10.9063 10.603C11.3922 10.1503 11.8785 9.69799 12.3648 9.24532C11.9541 8.54408 12.2269 7.56066 12.894 6.99941C13.659 6.35821 16.4935 3.9247 16.5697 4.00186C16.6457 4.07746 14.6577 5.95594 13.3295 7.28812L13.551 7.50932C14.9688 6.26674 16.9701 4.40319 17.0473 4.4791C17.1232 4.55532 15.1974 6.4951 13.9125 7.87177L14.1325 8.0911C15.507 6.80528 17.4474 4.87919 17.5227 4.95479C17.5989 5.03132 15.735 7.03301 14.4925 8.45074L14.7124 8.67039C16.044 7.34226 17.9215 5.35426 17.9984 5.42954C18.0752 5.50608 15.0061 9.10221 15.0017 9.1075C15.0011 9.10688 15.6532 8.34154 14.9993 9.10563C14.3752 9.83581 13.4431 10.0567 12.754 9.63608C12.3066 10.1161 11.8601 10.5962 11.4134 11.0762C11.3742 11.0392 15.5151 14.8929 17.5653 16.801Z" fill="#F6120D"/>
</svg>
