<svg width="18" height="18" viewBox="0 0 18 18" fill="none" xmlns="http://www.w3.org/2000/svg">
<g opacity="0.295829">
<path fill-rule="evenodd" clip-rule="evenodd" d="M16.9048 4.64886L16.8186 4.5C15.2541 1.81274 12.3365 0 9.00009 0C5.66347 0 2.7459 1.81274 1.18162 4.5L1.09542 4.64886C0.49202 5.73267 0.108072 6.95288 0 8.25V9.75C0.108072 11.0471 0.49202 12.2673 1.09542 13.3508L1.18162 13.5C2.7459 16.1873 5.66347 18 9.00009 18C12.3365 18 15.2541 16.1873 16.8186 13.5L16.9048 13.3508C17.5082 12.267 17.8921 11.0471 18 9.75V8.25C17.8921 6.95288 17.5082 5.73267 16.9048 4.64886ZM13.5016 8.25C13.4718 7.4621 13.3957 6.7088 13.2776 6H15.8952C16.2038 6.70129 16.4105 7.45679 16.4899 8.25H13.5016ZM6.64549 13.5C7.23988 15.3446 8.14894 16.5 9.00009 16.5C9.85106 16.5 10.7601 15.3446 11.3549 13.5H6.64549ZM6.2632 12C6.13068 11.3051 6.04099 10.5498 6.00607 9.75H11.9939C11.959 10.5498 11.8695 11.3051 11.737 12H6.2632ZM6.2632 6C6.13068 6.69489 6.04099 7.4502 6.00607 8.25H11.9939C11.959 7.4502 11.8695 6.69489 11.737 6H6.2632ZM9.00009 1.5C9.85106 1.5 10.7601 2.65576 11.3545 4.5H6.64549C7.23988 2.65576 8.14894 1.5 9.00009 1.5ZM12.9489 4.5H15.0084C14.2236 3.46271 13.1809 2.63068 11.9691 2.11011C12.3634 2.77881 12.6949 3.58502 12.9489 4.5ZM6.03125 2.11011C5.63682 2.77881 5.30525 3.58502 5.05106 4.5H2.99182C3.77663 3.46271 4.8193 2.63068 6.03125 2.11011ZM4.72244 6H2.10482C1.79586 6.70129 1.58928 7.45679 1.50988 8.25H4.49858C4.52817 7.4621 4.60463 6.7088 4.72244 6ZM4.49858 9.75C4.52817 10.5379 4.60426 11.2912 4.72244 12H2.10482C1.79623 11.2987 1.58965 10.5432 1.51025 9.75H4.49858ZM5.05106 13.5H2.99182C3.77663 14.5373 4.8193 15.3693 6.03088 15.8899C5.63682 15.2212 5.30525 14.415 5.05106 13.5ZM11.9688 15.8899C12.3634 15.2212 12.6949 14.415 12.9486 13.5H15.008C14.2236 14.5373 13.1809 15.3693 11.9688 15.8899ZM13.2779 12H15.8955C16.2041 11.2987 16.4109 10.5432 16.4907 9.75H13.502C13.4722 10.5379 13.3957 11.2912 13.2779 12Z" fill="#484848"/>
</g>
</svg>
