<svg width="22" height="22" viewBox="0 0 22 22" fill="none" xmlns="http://www.w3.org/2000/svg">
<rect x="0.5" y="0.5" width="21" height="21" fill="white" stroke="#F6120D"/>
<path fill-rule="evenodd" clip-rule="evenodd" d="M12.8604 7.37932C13.1517 7.10921 13.2967 6.78071 13.2967 6.39607C13.2967 6.01229 13.1519 5.68314 12.8604 5.40961C12.5698 5.13682 12.2196 5 11.8101 5C11.3993 5 11.0476 5.1365 10.7543 5.40961C10.4609 5.68314 10.3139 6.01218 10.3139 6.39607C10.3139 6.78071 10.4609 7.10911 10.7543 7.37932C11.0482 7.65039 11.3992 7.78604 11.8101 7.78604C12.2197 7.78604 12.5698 7.65039 12.8604 7.37932ZM12.9715 16.3474L13.1385 15.6646C13.0521 15.7052 12.9127 15.7516 12.7215 15.8044C12.5299 15.8572 12.3574 15.8841 12.2058 15.8841C11.8828 15.8841 11.6555 15.8312 11.5235 15.7248C11.3924 15.6184 11.3271 15.4183 11.3271 15.1251C11.3271 15.009 11.3468 14.8358 11.388 14.6092C11.428 14.3811 11.474 14.1784 11.5251 14.0011L12.1486 11.7934C12.2097 11.5908 12.2516 11.368 12.2741 11.1249C12.2971 10.8824 12.3079 10.7126 12.3079 10.6163C12.3079 10.1508 12.1447 9.773 11.8182 9.48157C11.4918 9.19036 11.0269 9.04475 10.4244 9.04475C10.0891 9.04475 9.73472 9.10432 9.35961 9.22336C8.98451 9.34207 8.59236 9.48511 8.18211 9.65214L8.01465 10.3355C8.1369 10.2903 8.28251 10.2416 8.45286 10.1913C8.62247 10.1411 8.78886 10.1152 8.95076 10.1152C9.28129 10.1152 9.50393 10.1716 9.62061 10.2826C9.73729 10.3939 9.7959 10.5919 9.7959 10.875C9.7959 11.0315 9.77736 11.2054 9.7389 11.3944C9.70097 11.5846 9.65361 11.7857 9.5979 11.9979L8.97165 14.2145C8.91593 14.4474 8.87522 14.6558 8.84961 14.8409C8.82422 15.0257 8.81201 15.2071 8.81201 15.3834C8.81201 15.839 8.98033 16.2145 9.31686 16.5109C9.6534 16.8061 10.1253 16.9547 10.7319 16.9547C11.1269 16.9547 11.4736 16.903 11.772 16.7992C12.0701 16.6957 12.4704 16.5452 12.9715 16.3474Z" fill="#F6120D"/>
</svg>
