<svg width="14" height="15" viewBox="0 0 14 15" fill="none" xmlns="http://www.w3.org/2000/svg">
<path opacity="0.60026" fill-rule="evenodd" clip-rule="evenodd" d="M3.57466 9.38464L0.207354 12.8868C-0.0775185 13.1831 -0.0680799 13.6555 0.227968 13.9404C0.3673 14.0745 0.550839 14.1482 0.744314 14.1482C0.948717 14.1482 1.13946 14.067 1.28127 13.9197L4.67416 10.391C5.63756 11.068 6.76438 11.4247 7.94684 11.4247C11.0966 11.4247 13.6592 8.86208 13.6592 5.71234C13.6592 2.56261 11.0966 0 7.94684 0C4.7971 0 2.23449 2.56261 2.23449 5.71234C2.23449 7.06046 2.70886 8.35542 3.57466 9.38464ZM3.72467 5.71234C3.72467 3.38419 5.61868 1.49018 7.94684 1.49018C10.275 1.49018 12.169 3.38419 12.169 5.71234C12.169 8.0405 10.275 9.93451 7.94684 9.93451C5.61868 9.93451 3.72467 8.0405 3.72467 5.71234Z" fill="#484848"/>
</svg>
