<svg width="22" height="22" viewBox="0 0 22 22" fill="none" xmlns="http://www.w3.org/2000/svg">
<rect x="0.5" y="0.5" width="21" height="21" fill="white" stroke="#F6120D"/>
<path fill-rule="evenodd" clip-rule="evenodd" d="M18.5958 6.06604C18.1807 5.7716 17.6129 5.859 17.2709 6.34107C16.9718 6.7626 17.0758 7.43104 17.263 7.70518C17.263 7.70518 17.2737 7.71893 17.2539 7.72715C17.2207 7.74091 17.0235 7.84854 17.0235 7.84854C16.9714 7.86472 16.9653 7.90377 17.0097 7.93533L17.0806 7.98566C17.0806 7.98566 17.1052 8.00407 17.0904 8.02495C16.9464 8.22787 15.7534 9.94149 15.2265 10.6986C15.1184 10.8398 15.1392 10.7145 15.1534 10.6362C15.2645 10.0251 15.4012 9.27326 15.4331 9.09737C15.4378 9.07216 15.4726 9.07762 15.4726 9.07762L15.5536 9.09239C15.6073 9.1021 15.6308 9.07042 15.6061 9.02191C15.6061 9.02191 15.5478 8.80717 15.5333 8.77517C15.5237 8.754 15.5383 8.75279 15.5383 8.75279C15.8723 8.69881 16.4184 8.30171 16.5112 7.79124C16.617 7.20976 16.2825 6.74254 15.7818 6.6515C15.281 6.56045 14.8035 6.88003 14.6978 7.46155C14.6053 7.97008 14.9826 8.53158 15.2682 8.70071C15.2682 8.70071 15.2838 8.70869 15.2692 8.72451C15.245 8.75097 15.1119 8.93204 15.1119 8.93204C15.0716 8.9687 15.0825 9.00673 15.1361 9.01644L15.2217 9.03202C15.2217 9.03202 15.2518 9.03833 15.2471 9.06354C15.2051 9.29482 14.9865 10.5223 14.8742 11.115C14.8689 11.1432 14.7761 11.1921 14.7174 11.269C14.6647 11.3381 14.1881 12.1106 13.5038 12.2255C13.3079 12.2255 12.0332 12.2255 11.8236 12.2255C11.3255 12.1418 10.8957 11.7429 10.7754 11.4434C10.7222 11.3109 10.6638 11.1527 10.5945 11.0038L9.33509 8.17426C9.24802 7.98712 9.17102 7.73645 8.81329 7.73645C8.68122 7.73645 8.5502 7.73645 8.39887 7.73645H6.5359C6.3817 7.73645 6.30158 7.73645 6.11161 7.73645C5.75485 7.73645 5.56869 7.96887 5.46664 8.1783L4.1922 10.9798C4.04163 11.2888 3.86065 11.6621 4.16626 11.8137C4.47207 11.9651 4.75438 11.8376 4.90502 11.5285L5.54987 10.4081C5.54987 10.4081 5.58681 10.3423 5.57298 10.4151C5.48691 10.8682 4.81111 13.108 4.81111 13.108C4.75329 13.3916 4.94281 13.6238 5.23236 13.6238C5.23236 13.6238 5.74883 13.6238 5.92091 13.6238C5.9702 13.6238 5.96142 13.6609 5.96142 13.6609L6.09288 17.2797C6.09288 17.7386 6.24724 17.9792 6.59999 17.9792C6.95258 17.9792 7.10711 17.7386 7.10711 17.2797L7.23857 13.65C7.23857 13.65 7.23711 13.6228 7.26588 13.6239C7.30299 13.625 7.3969 13.624 7.43894 13.624C7.46298 13.624 7.45998 13.653 7.45998 13.653L7.59144 17.2797C7.59144 17.7386 7.74597 17.9793 8.09872 17.9793C8.45131 17.9793 8.60584 17.7386 8.60584 17.2797L8.7373 13.6683C8.7373 13.6683 8.73309 13.6239 8.78602 13.6239C8.97121 13.6239 9.52672 13.6239 9.52672 13.6239C9.81623 13.6239 10.0104 13.3908 9.95813 13.1061C9.95813 13.1061 9.28172 10.7675 9.21828 10.3691C9.20011 10.2549 9.91569 11.5368 9.91569 11.5368C10.0296 11.7816 10.2759 11.7521 10.3843 11.9154C10.6192 12.269 10.8963 12.6329 11.1796 12.8017C11.6372 13.0791 11.6444 12.9549 11.688 13.3567L11.6806 13.6262L11.5291 14.7569C11.52 14.8248 11.5519 14.8837 11.6058 14.9122C11.6177 14.9185 11.6439 14.9258 11.6436 14.9654L11.5727 17.5289C11.5662 17.553 11.5727 17.7225 11.5864 17.7289C11.6308 17.871 11.7599 17.9792 11.9221 17.9792C12.0771 17.9792 12.2125 17.8822 12.2643 17.7468C12.257 17.7419 12.6142 15.2625 12.6637 15.2625C12.7286 15.2625 13.0632 17.7468 13.0632 17.7468C13.1213 17.8823 13.2504 17.9792 13.4054 17.9792C13.5684 17.9792 13.6958 17.871 13.7476 17.7289C13.7476 17.7225 13.7605 17.553 13.7476 17.5289L13.681 14.96C13.6777 14.9231 13.708 14.9147 13.7202 14.9072C13.7692 14.8775 13.7977 14.8213 13.7891 14.7568L13.6485 13.7071L13.6394 13.3566C13.683 12.9549 13.6958 13.0791 14.1478 12.8016C14.6135 12.5238 15.0904 11.592 15.1125 11.4653C15.1374 11.3226 15.0619 11.2655 15.1086 11.1989C15.4475 10.7151 17.0826 8.36273 17.2446 8.1344C17.2595 8.11344 17.2887 8.13315 17.2887 8.13315L17.3559 8.18089C17.4003 8.21241 17.4351 8.19368 17.4332 8.13918C17.4332 8.13918 17.4714 7.92003 17.4718 7.88487C17.4721 7.86165 17.4858 7.86678 17.4858 7.86678C17.8112 7.95924 18.4741 7.83073 18.7742 7.40754C19.1162 6.92539 19.011 6.36049 18.5958 6.06604Z" fill="#F6120D"/>
<path fill-rule="evenodd" clip-rule="evenodd" d="M7.34918 7.24634C8.23778 7.24634 8.95813 6.52599 8.95813 5.63739C8.95813 4.74879 8.23778 4.02844 7.34918 4.02844C6.46058 4.02844 5.74023 4.74879 5.74023 5.63739C5.74023 6.52599 6.46058 7.24634 7.34918 7.24634Z" fill="#F6120D"/>
<path fill-rule="evenodd" clip-rule="evenodd" d="M12.664 11.9153C13.1554 11.9153 13.5542 11.515 13.5542 11.0245C13.5542 10.529 13.1554 10.1335 12.664 10.1335C12.1661 10.1335 11.7666 10.529 11.7666 11.0245C11.7666 11.515 12.1661 11.9153 12.664 11.9153Z" fill="#F6120D"/>
</svg>
