<svg width="22" height="22" viewBox="0 0 22 22" fill="none" xmlns="http://www.w3.org/2000/svg">
<rect x="0.5" y="0.5" width="21" height="21" fill="white" stroke="#F6120D"/>
<path fill-rule="evenodd" clip-rule="evenodd" d="M7 16.002V6H10.9478C12.1103 6 13.0333 6.30573 13.7168 6.91719C14.4003 7.52866 14.7421 8.3482 14.7421 9.37583C14.7421 10.1012 14.5596 10.7255 14.1946 11.2486C13.8296 11.7717 13.3506 12.1588 12.7577 12.4099C12.1649 12.661 11.4941 12.7865 10.7455 12.7865H8.75767V16.002H7ZM8.75767 11.2032H10.8013C11.4569 11.2032 11.9801 11.037 12.3706 10.7045C12.7612 10.3721 12.9565 9.93383 12.9565 9.38978C12.9565 8.81319 12.7647 8.37145 12.3811 8.06456C11.9975 7.75766 11.4709 7.60422 10.8013 7.60422H8.75767V11.2032Z" fill="#F6120D"/>
</svg>
