<svg width="22" height="22" viewBox="0 0 22 22" fill="none" xmlns="http://www.w3.org/2000/svg">
<rect x="0.5" y="0.5" width="21" height="21" fill="white" stroke="#F6120D"/>
<path fill-rule="evenodd" clip-rule="evenodd" d="M17.2854 7.7174C17.3674 7.61714 17.4146 7.49105 17.4146 7.35218C17.4146 7.03387 17.1579 6.77557 16.8379 6.77557C16.6969 6.77557 16.5677 6.82585 16.4691 6.91113L15.0462 8.3307L13.3283 6.61422C13.1975 6.48869 13.0217 6.40814 12.8236 6.40814L10.1309 6.4098C9.95781 6.4098 9.80366 6.48869 9.6998 6.61117L7.84111 8.75317C7.72557 8.85538 7.65336 9.00453 7.65336 9.1723C7.65336 9.47893 7.90193 9.72835 8.21164 9.72835C8.38441 9.72835 8.53995 9.65141 8.64242 9.52587L10.367 7.53273L11.3608 7.53802L7.56114 11.9428L4.99167 11.9362C4.93306 11.9345 4.87279 11.9398 4.8106 11.9528C4.42537 12.0383 4.18566 12.4169 4.27427 12.8027C4.34982 13.1413 4.65312 13.3691 4.98671 13.3643L7.97306 13.3591C8.60495 13.381 8.84493 13.0874 8.84493 13.0874L10.3181 11.4448L12.0293 13.1091L11.3355 16.1979C11.3188 16.2549 11.3119 16.3157 11.3119 16.379C11.3119 16.7745 11.6338 17.0962 12.0293 17.0962C12.3746 17.0962 12.6645 16.8498 12.7312 16.5234L13.5761 12.7569C13.7572 12.1705 13.4408 11.8753 13.4408 11.8753L11.9321 10.3687L13.5778 8.46617L14.6304 9.52384C14.6304 9.52384 15.0496 9.96464 15.569 9.44524L17.2854 7.7174Z" fill="#F6120D"/>
<path fill-rule="evenodd" clip-rule="evenodd" d="M4.78344 14.7375C4.8537 14.7375 4.92286 14.7248 4.98952 14.6986L5.50641 14.4953C5.64917 14.4392 5.71943 14.2778 5.66335 14.1351C5.60697 13.9923 5.44614 13.9226 5.30309 13.9784L4.78623 14.1817C4.72346 14.2056 4.41958 14.0084 4.22268 13.5079L3.53636 11.7634C3.48054 11.6206 3.31916 11.5507 3.17611 11.6068C3.03335 11.6629 2.96309 11.8242 3.01947 11.967L3.70579 13.7115C3.95183 14.3373 4.38708 14.7375 4.78344 14.7375Z" fill="#F6120D"/>
<path fill-rule="evenodd" clip-rule="evenodd" d="M14.0989 16.5923C14.0989 16.4387 13.9745 16.3146 13.8212 16.3146C13.6679 16.3146 13.5435 16.4387 13.5435 16.5923V17.1478C13.5435 17.217 13.2479 17.4255 12.7102 17.4255H10.8354C10.682 17.4255 10.5576 17.5497 10.5576 17.7033C10.5576 17.8569 10.682 17.981 10.8354 17.981H12.7102C13.5021 17.981 14.0989 17.6227 14.0989 17.1477V16.5923Z" fill="#F6120D"/>
<path fill-rule="evenodd" clip-rule="evenodd" d="M14.6215 6.70779C15.3612 6.70779 15.9606 6.10619 15.9606 5.36681C15.9606 4.62687 15.3612 4.02722 14.6215 4.02722C13.8816 4.02722 13.2803 4.62687 13.2803 5.36681C13.2803 6.10619 13.8816 6.70779 14.6215 6.70779Z" fill="#F6120D"/>
</svg>
