<svg width="22" height="22" viewBox="0 0 22 22" fill="none" xmlns="http://www.w3.org/2000/svg">
<rect x="0.5" y="0.5" width="21" height="21" fill="white" stroke="#F6120D"/>
<path fill-rule="evenodd" clip-rule="evenodd" d="M5.35969 14.0597L3.2998 7.98343H4.7219L5.97163 12.0687L7.32478 7.96619H8.46246L9.81561 12.0687L11.0653 7.98343H12.453L10.3931 14.0597H9.23815L7.87638 10.1123L6.51461 14.0597H5.35969ZM16.2625 14.12C15.3776 14.12 14.6407 13.8198 14.0517 13.2193C13.4628 12.6189 13.1683 11.8791 13.1683 11C13.1683 10.1266 13.4642 9.3883 14.056 8.78498C14.6479 8.18166 15.4006 7.88 16.3142 7.88C16.837 7.88 17.2766 7.96476 17.6328 8.13426C17.9891 8.30376 18.3281 8.54652 18.6499 8.86255L17.8569 9.77614C17.5984 9.54056 17.3556 9.36962 17.1286 9.26332C16.9017 9.15702 16.6273 9.10387 16.3056 9.10387C15.7999 9.10387 15.3819 9.2863 15.0515 9.65117C14.7211 10.016 14.5559 10.4656 14.5559 11C14.5559 11.5286 14.7211 11.9768 15.0515 12.3445C15.3819 12.7123 15.7999 12.8961 16.3056 12.8961C16.6273 12.8961 16.906 12.8387 17.1416 12.7238C17.3772 12.6088 17.6271 12.4307 17.8914 12.1894L18.736 13.0944C18.4085 13.4449 18.0537 13.7034 17.6716 13.8701C17.2895 14.0367 16.8198 14.12 16.2625 14.12Z" fill="#F6120D"/>
</svg>
