<svg width="22" height="22" viewBox="0 0 22 22" fill="none" xmlns="http://www.w3.org/2000/svg">
<rect x="0.5" y="0.5" width="21" height="21" fill="white" stroke="#F6120D"/>
<path fill-rule="evenodd" clip-rule="evenodd" d="M16.562 10.0982C17.6605 9.69114 18.8932 10.2562 19.3039 11.3609C19.5028 11.8964 19.4813 12.4772 19.2432 12.9967C19.0052 13.5161 18.5793 13.9118 18.0435 14.1107L6.3302 18.1228C5.9316 18.271 5.49562 18.2955 5.07725 18.1912C4.39108 18.0201 3.83462 17.5224 3.58839 16.8599C3.38941 16.3246 3.41091 15.7438 3.64897 15.2244C3.88704 14.705 4.31291 14.3092 4.84868 14.1103L6.55336 13.5264L9.99636 12.3471L16.562 10.0982ZM7.40698 16.3523L7.92521 15.5367C7.97814 15.454 7.98763 15.3506 7.95131 15.2594C7.91471 15.1682 7.83665 15.1001 7.74139 15.0764L6.85198 14.8546C6.68813 14.8138 6.52246 14.9133 6.4816 15.0772C6.44684 15.2166 6.51706 15.3525 6.6387 15.4165L5.49003 15.8276C5.331 15.8846 5.24838 16.0593 5.3053 16.2183C5.34097 16.3182 5.4235 16.388 5.51934 16.4119C5.57579 16.426 5.63687 16.4239 5.69592 16.403L6.93211 15.9606L6.89152 16.0245C6.80091 16.1671 6.84301 16.3559 6.98534 16.4462C7.01401 16.4644 7.04433 16.4772 7.07532 16.4849C7.19951 16.5158 7.33459 16.4662 7.40698 16.3523Z" fill="#F6120D"/>
<path fill-rule="evenodd" clip-rule="evenodd" d="M8.04312 7.16365C8.9123 7.16365 9.61943 6.45652 9.61943 5.58731C9.61943 4.71815 8.9123 4.01099 8.04312 4.01099C7.17393 4.01099 6.4668 4.71812 6.4668 5.58731C6.4668 6.45649 7.17393 7.16365 8.04312 7.16365Z" fill="#F6120D"/>
<path fill-rule="evenodd" clip-rule="evenodd" d="M8.05467 7.60516C7.11342 7.60516 6.34766 8.37093 6.34766 9.31221V12.2289L9.75363 10.9548C9.67058 10.0905 8.94044 7.60516 8.05467 7.60516Z" fill="#F6120D"/>
</svg>
