<svg width="11" height="21" viewBox="0 0 11 21" fill="none" xmlns="http://www.w3.org/2000/svg">
<path fill-rule="evenodd" clip-rule="evenodd" d="M10.5439 0.0043694L7.91596 0C4.96352 0 3.05553 2.02849 3.05553 5.16813V7.55098H0.413223C0.184896 7.55098 0 7.7428 0 7.9794V11.4319C0 11.6685 0.185107 11.8601 0.413223 11.8601H3.05553V20.5718C3.05553 20.8084 3.24043 21 3.46875 21H6.91621C7.14454 21 7.32944 20.8082 7.32944 20.5718V11.8601H10.4189C10.6472 11.8601 10.8321 11.6685 10.8321 11.4319L10.8334 7.9794C10.8334 7.8658 10.7898 7.757 10.7124 7.6766C10.635 7.5962 10.5296 7.55098 10.42 7.55098H7.32944V5.53101C7.32944 4.56013 7.5527 4.06726 8.77319 4.06726L10.5435 4.0666C10.7716 4.0666 10.9565 3.87479 10.9565 3.6384V0.432571C10.9565 0.196405 10.7718 0.00480634 10.5439 0.0043694Z" fill="#484848"/>
</svg>
