<svg width="24" height="15" viewBox="0 0 24 15" fill="none" xmlns="http://www.w3.org/2000/svg">
<path fill-rule="evenodd" clip-rule="evenodd" d="M23.1611 12.825C23.1329 12.7636 23.1066 12.7127 23.0822 12.6719C22.6782 11.9371 21.9062 11.0352 20.7667 9.96589L20.7426 9.9414L20.7305 9.92939L20.7183 9.91709H20.7061C20.1889 9.41916 19.8614 9.08437 19.7243 8.91297C19.4733 8.58645 19.4171 8.25595 19.5542 7.92107C19.6511 7.66806 20.0151 7.13373 20.6453 6.31736C20.9769 5.88471 21.2394 5.53795 21.4333 5.2767C22.8316 3.39926 23.4378 2.19955 23.2519 1.6771L23.1796 1.55501C23.1311 1.48151 23.0058 1.41427 22.804 1.35295C22.6017 1.29175 22.3432 1.28163 22.0279 1.32241L18.5365 1.34677C18.4799 1.32653 18.3991 1.32842 18.2939 1.35295C18.1888 1.37748 18.1362 1.38978 18.1362 1.38978L18.0755 1.42045L18.0272 1.45728C17.9868 1.48164 17.9424 1.52448 17.8938 1.58572C17.8456 1.64674 17.8052 1.71836 17.7729 1.79996C17.3928 2.78761 16.9606 3.70588 16.4755 4.55472C16.1765 5.06087 15.9018 5.49953 15.651 5.87094C15.4005 6.24223 15.1904 6.51578 15.0208 6.69113C14.8509 6.86665 14.6977 7.00727 14.56 7.11349C14.4225 7.21976 14.3176 7.26465 14.245 7.24823C14.1721 7.23181 14.1036 7.21551 14.0386 7.19921C13.9256 7.12571 13.8346 7.02575 13.766 6.89924C13.6972 6.77274 13.6508 6.61351 13.6265 6.42169C13.6024 6.22975 13.5882 6.06464 13.5841 5.92583C13.5803 5.78719 13.582 5.59108 13.5902 5.33807C13.5986 5.08493 13.6024 4.91365 13.6024 4.82385C13.6024 4.51363 13.6084 4.17696 13.6204 3.81373C13.6327 3.45051 13.6425 3.16272 13.6508 2.9507C13.6591 2.73847 13.6629 2.51393 13.6629 2.27722C13.6629 2.0405 13.6486 1.85486 13.6204 1.72012C13.5926 1.58555 13.5498 1.45492 13.4935 1.32829C13.4368 1.20178 13.3538 1.10392 13.2449 1.03445C13.1358 0.965065 13.0002 0.910003 12.8388 0.869092C12.4104 0.771189 11.8649 0.718228 11.202 0.709994C9.69882 0.693698 8.73293 0.79173 8.30457 1.00396C8.13485 1.09363 7.98126 1.21615 7.84394 1.37113C7.69842 1.55077 7.67812 1.6488 7.78317 1.66492C8.26818 1.7383 8.61153 1.91382 8.81361 2.19132L8.88643 2.33837C8.94307 2.44446 8.99963 2.63229 9.05624 2.9016C9.11275 3.17091 9.14923 3.46882 9.16528 3.79516C9.20562 4.39112 9.20562 4.90126 9.16528 5.32563C9.12481 5.75018 9.0866 6.08068 9.05012 6.3174C9.01365 6.55412 8.95912 6.74594 8.88643 6.89281C8.81361 7.03973 8.76516 7.12953 8.74087 7.16212C8.71662 7.19471 8.69641 7.21525 8.68036 7.22331C8.57531 7.26397 8.46605 7.28468 8.35297 7.28468C8.23973 7.28468 8.1024 7.22747 7.94079 7.11315C7.77922 6.99882 7.61154 6.84178 7.43774 6.64177C7.26394 6.44172 7.06794 6.16216 6.84964 5.80306C6.63151 5.44395 6.40519 5.01953 6.17079 4.5298L5.97687 4.17464C5.85564 3.94616 5.69004 3.61347 5.47989 3.17687C5.26962 2.7401 5.08376 2.31761 4.92219 1.90949C4.8576 1.73808 4.76058 1.60759 4.63128 1.51779L4.5706 1.48095C4.53026 1.44836 4.46551 1.41376 4.37668 1.37688C4.28772 1.34004 4.19489 1.31362 4.09783 1.29737L0.776041 1.32173C0.436597 1.32173 0.206282 1.39939 0.0850096 1.5545L0.0364751 1.62787C0.0122291 1.66874 0 1.73401 0 1.82385C0 1.91365 0.024246 2.02386 0.0727804 2.15435C0.5577 3.30535 1.08504 4.41539 1.6548 5.48465C2.22456 6.5539 2.71967 7.41522 3.13983 8.06782C3.56008 8.72089 3.98844 9.33726 4.42491 9.91661C4.86138 10.4962 5.1503 10.8676 5.29165 11.0308C5.43318 11.1942 5.54435 11.3165 5.62515 11.3981L5.92829 11.6919C6.12226 11.8878 6.4071 12.1225 6.78293 12.3958C7.15885 12.6694 7.57502 12.9387 8.03166 13.2042C8.48839 13.4693 9.01972 13.6856 9.62595 13.8528C10.2321 14.0203 10.8221 14.0875 11.396 14.0551H12.7902C13.0729 14.0304 13.2871 13.9406 13.4327 13.7857L13.481 13.7243C13.5134 13.6756 13.5438 13.5999 13.5718 13.498C13.6002 13.396 13.6143 13.2836 13.6143 13.1614C13.606 12.8104 13.6324 12.4942 13.6929 12.2126C13.7533 11.9311 13.8222 11.7189 13.8992 11.5759C13.9762 11.4331 14.0631 11.3126 14.1598 11.215C14.2567 11.1171 14.3257 11.0577 14.3662 11.0373C14.4065 11.0168 14.4386 11.0029 14.4629 10.9945C14.6568 10.9292 14.8851 10.9924 15.148 11.1844C15.4108 11.3762 15.6572 11.6131 15.8877 11.8946C16.118 12.1763 16.3948 12.4924 16.718 12.8433C17.0414 13.1944 17.3242 13.4553 17.5666 13.627L17.809 13.7739C17.9709 13.8719 18.181 13.9617 18.4397 14.0433C18.6979 14.1249 18.9241 14.1453 19.1184 14.1045L22.2218 14.0556C22.5288 14.0556 22.7677 14.0043 22.9371 13.9025C23.1068 13.8004 23.2077 13.688 23.2402 13.5658C23.2727 13.4434 23.2744 13.3045 23.2464 13.1493C23.2176 12.9944 23.1893 12.8862 23.1611 12.825Z" fill="#484848"/>
</svg>
