<svg width="17" height="17" viewBox="0 0 17 17" fill="none" xmlns="http://www.w3.org/2000/svg">
<path d="M16.7291 0.276627C16.7281 0.275631 16.7273 0.274568 16.7263 0.273572C16.7253 0.272576 16.7243 0.271779 16.7233 0.27085C16.4587 0.00847721 16.0792 -0.0703474 15.7318 0.0654873L0.590656 5.98587C0.190359 6.14235 -0.0441545 6.53425 0.00694503 6.96095C0.0581774 7.38768 0.378687 7.71297 0.804583 7.77038L8.20479 8.7684C8.21864 8.7703 8.22973 8.78132 8.23162 8.79527L9.22964 16.1955C9.28705 16.6214 9.61234 16.9419 10.0391 16.9931C10.078 16.9978 10.1167 17 10.1549 17C10.5354 17 10.8719 16.7731 11.0141 16.4094L16.9346 1.26798C17.0703 0.920671 16.9915 0.541224 16.7291 0.276627Z" fill="#484848"/>
</svg>
