<svg width="16" height="16" viewBox="0 0 16 16" fill="none" xmlns="http://www.w3.org/2000/svg">
<path fill-rule="evenodd" clip-rule="evenodd" d="M0 8C0 3.5888 3.5888 0 8 0C12.4112 0 16 3.5888 16 8C16 12.4112 12.4112 16 8 16C3.5888 16 0 12.4112 0 8ZM1.7021 8C1.7021 11.4727 4.52746 14.2977 8 14.2977C11.4725 14.2977 14.2979 11.4727 14.2979 8C14.2979 4.5273 11.4725 1.70226 8 1.70226C4.52746 1.70226 1.7021 4.5273 1.7021 8Z" fill="#484848"/>
<path fill-rule="evenodd" clip-rule="evenodd" d="M12.5088 8.03379H8.86474V3.51245C8.86474 3.13197 8.56579 2.82349 8.19708 2.82349C7.82836 2.82349 7.52942 3.13197 7.52942 3.51245V8.72276C7.52942 9.10324 7.82836 9.41172 8.19708 9.41172H12.5088C12.8775 9.41172 13.1765 9.10324 13.1765 8.72276C13.1765 8.34227 12.8775 8.03379 12.5088 8.03379Z" fill="#484848"/>
</svg>
