<svg width="18" height="18" viewBox="0 0 18 18" fill="none" xmlns="http://www.w3.org/2000/svg">
<path fill-rule="evenodd" clip-rule="evenodd" d="M11.1294 8.99194L17.5414 2.58005C18.1316 1.98983 18.1316 1.03289 17.5414 0.442751C16.9511 -0.147471 15.9943 -0.147471 15.404 0.442751L8.99198 6.85473L2.57993 0.442667C1.9897 -0.147556 1.03284 -0.147556 0.442609 0.442667C-0.147536 1.03289 -0.147536 1.98983 0.442609 2.57996L6.85466 8.99186L0.442609 15.4038C-0.147536 15.9941 -0.147536 16.951 0.442609 17.5411C1.03284 18.1314 1.9897 18.1314 2.57993 17.5411L8.99198 11.1292L15.404 17.5411C15.9942 18.1314 16.9511 18.1314 17.5414 17.5411C18.1316 16.9509 18.1316 15.9941 17.5414 15.4038L11.1294 8.99194Z" fill="white"/>
</svg>
