<svg width="13" height="23" viewBox="0 0 13 23" fill="none" xmlns="http://www.w3.org/2000/svg">
<path fill-rule="evenodd" clip-rule="evenodd" d="M11.7386 0.00478554L8.86035 0C5.62673 0 3.53702 2.22168 3.53702 5.66033V8.27012H0.643068C0.392996 8.27012 0.190491 8.48021 0.190491 8.73934V12.5206C0.190491 12.7798 0.393227 12.9896 0.643068 12.9896H3.53702V22.531C3.53702 22.7902 3.73953 23 3.9896 23H7.76539C8.01546 23 8.21797 22.7899 8.21797 22.531V12.9896H11.6017C11.8518 12.9896 12.0543 12.7798 12.0543 12.5206L12.0556 8.73934C12.0556 8.61492 12.0078 8.49576 11.9231 8.40771C11.8384 8.31965 11.7229 8.27012 11.6028 8.27012H8.21797V6.05777C8.21797 4.99442 8.4625 4.45462 9.79922 4.45462L11.7381 4.4539C11.988 4.4539 12.1905 4.24381 12.1905 3.98492V0.473768C12.1905 0.21511 11.9882 0.00526409 11.7386 0.00478554Z" fill="#F6120D"/>
</svg>
