<svg width="22" height="22" viewBox="0 0 22 22" fill="none" xmlns="http://www.w3.org/2000/svg">
<path fill-rule="evenodd" clip-rule="evenodd" d="M6.01144 0.0952148H15.7722C19.0872 0.0952148 21.784 2.79208 21.7839 6.10678V15.8675C21.7839 19.1823 19.0872 21.8791 15.7722 21.8791H6.01144C2.69673 21.8791 0 19.1824 0 15.8675V6.10678C0 2.79208 2.69673 0.0952148 6.01144 0.0952148ZM15.7723 19.9463C18.0214 19.9463 19.8513 18.1166 19.8513 15.8675H19.8511V6.10678C19.8511 3.85781 18.0213 2.02799 15.7722 2.02799H6.01144C3.76247 2.02799 1.93277 3.85781 1.93277 6.10678V15.8675C1.93277 18.1166 3.76247 19.9465 6.01144 19.9463H15.7723Z" fill="#F6120D"/>
<path fill-rule="evenodd" clip-rule="evenodd" d="M5.27881 10.9874C5.27881 7.89228 7.79683 5.37427 10.892 5.37427C13.9871 5.37427 16.5051 7.89228 16.5051 10.9874C16.5051 14.0824 13.9871 16.6003 10.892 16.6003C7.79683 16.6003 5.27881 14.0824 5.27881 10.9874ZM7.21158 10.9873C7.21158 13.0166 8.86269 14.6674 10.892 14.6674C12.9213 14.6674 14.5724 13.0166 14.5724 10.9873C14.5724 8.95789 12.9214 7.30691 10.892 7.30691C8.86256 7.30691 7.21158 8.95789 7.21158 10.9873Z" fill="#F6120D"/>
<path fill-rule="evenodd" clip-rule="evenodd" d="M16.7405 3.73535C16.3682 3.73535 16.0024 3.88611 15.7394 4.15025C15.4751 4.41311 15.3232 4.77905 15.3232 5.15272C15.3232 5.52523 15.4752 5.89104 15.7394 6.15518C16.0022 6.41804 16.3682 6.57009 16.7405 6.57009C17.1142 6.57009 17.4789 6.41804 17.743 6.15518C18.0072 5.89104 18.1579 5.5251 18.1579 5.15272C18.1579 4.77905 18.0072 4.41311 17.743 4.15025C17.4802 3.88611 17.1142 3.73535 16.7405 3.73535Z" fill="#F6120D"/>
</svg>
