<svg width="19" height="20" viewBox="0 0 19 20" fill="none" xmlns="http://www.w3.org/2000/svg">
<path fill-rule="evenodd" clip-rule="evenodd" d="M4.84427 12.7012L0.286961 17.441C-0.0985851 17.842 -0.0858116 18.4813 0.314861 18.8669C0.503433 19.0484 0.751835 19.1482 1.01368 19.1482C1.29032 19.1482 1.54847 19.0383 1.74041 18.839L6.33234 14.0632C7.6362 14.9795 9.16125 15.4622 10.7616 15.4622C15.0244 15.4622 18.4927 11.9939 18.4927 7.73109C18.4927 3.46824 15.0244 0 10.7616 0C6.49873 0 3.03049 3.46824 3.03049 7.73109C3.03049 9.55563 3.67251 11.3082 4.84427 12.7012ZM5.0473 7.73109C5.0473 4.58017 7.61066 2.01681 10.7616 2.01681C13.9125 2.01681 16.4759 4.58017 16.4759 7.73109C16.4759 10.882 13.9125 13.4454 10.7616 13.4454C7.61066 13.4454 5.0473 10.882 5.0473 7.73109Z" fill="#484848"/>
</svg>
