<?xml version="1.0" encoding="UTF-8"?>
<svg width="1365px" height="313px" viewBox="0 0 1365 313" version="1.1" xmlns="http://www.w3.org/2000/svg" xmlns:xlink="http://www.w3.org/1999/xlink">
    <!-- Generator: Sketch 52.4 (67378) - http://www.bohemiancoding.com/sketch -->
    <title>1213 copy 3</title>
    <desc>Created with Sketch.</desc>
    <g id="Page-1" stroke="none" stroke-width="1" fill="none" fill-rule="evenodd">
        <g id="1213-copy-3" fill="#FFFFFF">
            <g id="1213-copy-2">
                <g id="1213-copy">
                    <g id="1212">
                        <path d="M105.6,140.4 C99.7,153.6 87.3,162.7 73,162.7 C53,162.7 36.7,144.9 36.7,123 C36.7,101.1 53,83.3 73,83.3 C87.3,83.3 99.7,92.4 105.6,105.6 L140.2,105.6 C132.6,73.7 104.8,50 71.5,50 C32.4,50 0.8,82.7 0.8,123 C0.8,163.3 32.5,196 71.5,196 C104.8,196 132.6,172.3 140.2,140.4 L105.6,140.4 Z" id="Path"></path>
                        <polyline id="Path" points="273.9 52 204.3 120.4 204.3 52 166.5 52 166.5 193.9 178.9 193.9 250.4 123.9 250.4 193.9 288.2 193.9 288.2 52 275.8 52"></polyline>
                        <rect id="Rectangle" x="310.3" y="52" width="105.2" height="32.2"></rect>
                        <rect id="Rectangle" transform="translate(362.856900, 135.037000) rotate(90.000000) translate(-362.856900, -135.037000) " x="304.0069" y="117.937" width="117.7" height="34.2"></rect>
                        <polyline id="Path" points="544.9 52 475.3 120.4 475.3 52 437.5 52 437.5 193.9 449.9 193.9 521.3 123.9 521.3 189.5 559.1 142.8 559.1 52 546.7 52"></polyline>
                        <polygon id="Path" points="878.4 52.3 821.8 112.9 791.6 80 791.6 79.6 766.4 52.3 753.4 52.3 753.4 145.5 791.1 193.5 791.6 193.5 791.6 131.3 822.4 162.9 853.1 129.7 853.1 193.5 891.4 193.5 891.4 52.3"></polygon>
                        <path d="M990.5,51.1 C950.6,51.1 918.2,83.1 918.2,122.6 C918.2,162.1 950.6,194.1 990.5,194.1 C1030.4,194.1 1062.8,162.1 1062.8,122.6 C1062.7,83.1 1030.4,51.1 990.5,51.1 Z M990.5,161.5 C971,161.5 955.3,144.1 955.3,122.6 C955.3,101.1 971.1,83.7 990.5,83.7 C1010,83.7 1025.7,101.1 1025.7,122.6 C1025.7,144.1 1009.9,161.5 990.5,161.5 Z" id="Shape" fill-rule="nonzero"></path>
                        <polygon id="Path" points="1147.9 49.5 1142 49.5 1136.1 49.5 1071.9 186.5 1071.9 193.2 1106.9 193.2 1142 110.4 1177.1 193.2 1212.2 193.2 1212.2 186.5"></polygon>
                        <polygon id="Path" points="1300.7 49.5 1294.8 49.5 1288.9 49.5 1224.6 186.5 1224.6 193.2 1259.7 193.2 1294.8 110.4 1329.9 193.2 1365 193.2 1365 186.5"></polygon>
                        <polygon id="Path" points="594.1 0.4 600.6 0.4 655.9 55.1 711.5 0.4 717.9 0.4 669.6 73.6 852.1 310.8 842.3 310.8 656.4 97.5 471.5 310.8 461.4 310.8 643 73.6"></polygon>
                        <path d="M682.4,148.6 C683.6,149.8 683.6,151.7 682.4,152.8 L657.9,177.3 C656.7,178.5 654.8,178.5 653.7,177.3 L629.2,152.8 C628,151.6 628,149.7 629.2,148.6 L653.7,124.1 C654.9,122.9 656.8,122.9 657.9,124.1 L682.4,148.6 Z" id="Path"></path>
                        <path d="M708,181.7 C701.5,173.3 697.6,169.1 689.2,169.1 C680.8,169.1 676.6,175 676.6,175 L655.3,200.8 L655.2,200.7 L655.2,200.6 L655.2,200.7 L655.1,200.8 L633.8,175 C633.8,175 629.6,169.1 621.2,169.1 C612.8,169.1 608.8,173.3 602.4,181.7 C595.9,190.1 572.1,221.8 572.1,221.8 C572.1,221.8 580.5,227.1 620.7,189.2 C627.8,197.1 654,222.7 655.3,223.9 L655.3,224 C655.3,224 655.3,224 655.3,224 C655.3,224 655.3,224 655.3,224 L655.3,223.9 C656.6,222.6 682.8,197.1 689.9,189.2 C730,227.1 738.5,221.8 738.5,221.8 C738.5,221.8 714.5,190.1 708,181.7 Z" id="Path"></path>
                        <path d="M564,293.4 C562,297.9 557.7,301.1 552.7,301.1 C545.8,301.1 540.3,295.2 540.3,287.9 C540.3,280.6 545.9,274.7 552.7,274.7 C557.7,274.7 562,277.9 564,282.4 L575.3,282.4 C573,271.5 563.8,263.3 552.8,263.3 C540,263.3 529.7,274.3 529.7,287.9 C529.7,301.5 540.1,312.5 552.8,312.5 C563.8,312.5 573,304.3 575.3,293.4 L564,293.4 Z" id="Path"></path>
                        <polygon id="Path" points="577.6 265.4 590.2 265.4 598.9 282.2 607.6 265.4 620.8 265.4 598.1 312.5 585.7 312.5 593.6 293.4"></polygon>
                        <polygon id="Path" points="703.5 265.4 716.1 265.4 724.8 282.2 733.5 265.4 746.7 265.4 724 312.5 711.6 312.5 719.5 293.4"></polygon>
                        <polygon id="Path" points="638.5 265.4 632.3 265.4 626.1 265.4 626.1 312.5 638.5 312.5"></polygon>
                        <path d="M647.7,265.8 L632.3,265.3 L631.5,271.1 L630.4,298.5 C630.4,298.5 631.5,298.5 647.4,298.5 C663.3,298.5 663,285.4 663,282.9 C662.9,266.4 647.7,265.8 647.7,265.8 Z M646.6,288.9 C641.8,288.9 634.2,288.9 634.2,288.9 L635.6,275.4 L646.5,275.4 C646.5,275.4 652.5,276.2 652.5,281.4 C652.6,283.9 651.4,288.9 646.6,288.9 Z" id="Shape" fill-rule="nonzero"></path>
                        <rect id="Rectangle" x="671.6" y="265.4" width="12.5" height="47.2"></rect>
                        <rect id="Rectangle" transform="translate(685.968600, 271.102700) rotate(90.000000) translate(-685.968600, -271.102700) " x="680.2186" y="257.0027" width="11.5" height="28.2"></rect>
                        <rect id="Rectangle" x="750.8" y="265.4" width="33.7" height="11.2"></rect>
                        <rect id="Rectangle" transform="translate(767.650300, 293.015400) rotate(90.000000) translate(-767.650300, -293.015400) " x="747.9003" y="287.4154" width="39.5" height="11.2"></rect>
                    </g>
                </g>
            </g>
        </g>
    </g>
</svg>