<svg width="13" height="17" viewBox="0 0 13 17" fill="none" xmlns="http://www.w3.org/2000/svg">
<path fill-rule="evenodd" clip-rule="evenodd" d="M6.5 0C10.0896 0 13 2.85493 13 6.375C13 7.64895 12.6187 8.83521 11.9627 9.8313L7.63805 16.3923C7.397 16.7577 6.97721 17 6.5 17C6.02279 17 5.603 16.7578 5.36195 16.3917L1.03729 9.83079C0.381333 8.83521 0 7.64895 0 6.375C0 2.85493 2.90983 0 6.5 0ZM9.20833 6.375C9.20833 4.9077 7.99607 3.71875 6.5 3.71875C5.00393 3.71875 3.79167 4.9077 3.79167 6.375C3.79167 7.8423 5.00393 9.03125 6.5 9.03125C7.99607 9.03125 9.20833 7.8423 9.20833 6.375ZM7.58333 6.375C7.58333 6.96043 7.09745 7.4375 6.5 7.4375C5.90255 7.4375 5.41667 6.96096 5.41667 6.375C5.41667 5.78904 5.90255 5.3125 6.5 5.3125C7.09745 5.3125 7.58333 5.78957 7.58333 6.375ZM6.5 15.1831L2.40231 8.96591C1.89367 8.19454 1.625 7.29832 1.625 6.375C1.625 3.73841 3.81224 1.59375 6.5 1.59375C9.18776 1.59375 11.375 3.73841 11.375 6.375C11.375 7.2983 11.1063 8.19452 10.5977 8.96643L6.5 15.1831Z" fill="#484848"/>
</svg>
