<svg width="27" height="16" viewBox="0 0 27 16" fill="none" xmlns="http://www.w3.org/2000/svg">
<path fill-rule="evenodd" clip-rule="evenodd" d="M25.8907 13.4274C25.8599 13.3602 25.8311 13.3045 25.8043 13.2598C25.3619 12.455 24.5163 11.4672 23.2682 10.2961L23.2419 10.2692L23.2287 10.2561L23.2153 10.2426H23.2019C22.6355 9.69726 22.2768 9.33059 22.1266 9.14286C21.8517 8.78524 21.7901 8.42326 21.9403 8.05649C22.0465 7.77939 22.4451 7.19417 23.1354 6.30004C23.4985 5.82619 23.786 5.44641 23.9983 5.16028C25.5298 3.10404 26.1938 1.79007 25.9901 1.21786L25.911 1.08414C25.8579 1.00364 25.7207 0.929996 25.4996 0.862832C25.2781 0.79581 24.9949 0.784725 24.6496 0.829392L20.8256 0.856069C20.7637 0.8339 20.6752 0.835967 20.56 0.862832C20.4449 0.889698 20.3873 0.903178 20.3873 0.903178L20.3208 0.93676L20.2679 0.977105C20.2237 1.00378 20.175 1.0507 20.1218 1.11777C20.0689 1.18461 20.0247 1.26304 19.9894 1.35242C19.573 2.43414 19.0997 3.43985 18.5685 4.36953C18.2409 4.92389 17.9401 5.40432 17.6654 5.81111C17.3911 6.21776 17.1609 6.51736 16.9751 6.70941C16.7891 6.90165 16.6212 7.05566 16.4705 7.172C16.3199 7.28838 16.205 7.33756 16.1254 7.31957C16.0457 7.30158 15.9706 7.28373 15.8995 7.26589C15.7756 7.18538 15.676 7.0759 15.6009 6.93735C15.5254 6.79879 15.4747 6.6244 15.4481 6.41432C15.4217 6.20409 15.4061 6.02326 15.4016 5.87123C15.3975 5.71938 15.3994 5.5046 15.4083 5.22749C15.4176 4.95024 15.4217 4.76265 15.4217 4.6643C15.4217 4.32454 15.4283 3.95579 15.4414 3.55798C15.4548 3.16016 15.4656 2.84496 15.4747 2.61275C15.4837 2.38031 15.4879 2.13439 15.4879 1.87513C15.4879 1.61587 15.4723 1.41254 15.4414 1.26497C15.4109 1.11759 15.3641 0.974522 15.3024 0.835826C15.2403 0.697271 15.1494 0.590091 15.0302 0.514004C14.9107 0.43801 14.7621 0.377703 14.5854 0.332896C14.1162 0.225669 13.5187 0.167664 12.7927 0.158646C11.1463 0.140799 10.0884 0.248167 9.61928 0.48061C9.4334 0.578819 9.26518 0.713006 9.11478 0.882747C8.9554 1.07949 8.93317 1.18686 9.04823 1.20452C9.57943 1.28488 9.95548 1.47712 10.1768 1.78105L10.2566 1.9421C10.3186 2.0583 10.3805 2.26402 10.4425 2.55898C10.5044 2.85393 10.5444 3.18022 10.562 3.53764C10.6061 4.19035 10.6061 4.74908 10.562 5.21387C10.5176 5.67885 10.4758 6.04083 10.4358 6.30009C10.3959 6.55935 10.3362 6.76944 10.2566 6.9303C10.1768 7.09121 10.1237 7.18956 10.0971 7.22526C10.0706 7.26096 10.0484 7.28345 10.0309 7.29228C9.91581 7.33681 9.79615 7.35949 9.6723 7.35949C9.54827 7.35949 9.39787 7.29684 9.22086 7.17162C9.04391 7.04641 8.86025 6.87441 8.6699 6.65535C8.47955 6.43625 8.26488 6.13007 8.02579 5.73676C7.78689 5.34345 7.53901 4.87861 7.28229 4.34224L7.0699 3.95326C6.93712 3.70301 6.75575 3.33864 6.52559 2.86046C6.29529 2.3821 6.09173 1.91937 5.91477 1.47238C5.84404 1.28465 5.73777 1.14173 5.59616 1.04338L5.5297 1.00303C5.48552 0.967336 5.4146 0.929433 5.31731 0.88904C5.21988 0.848695 5.11821 0.819763 5.0119 0.801962L1.37375 0.82864C1.00198 0.82864 0.749732 0.913698 0.616909 1.08358L0.563753 1.16394C0.537198 1.2087 0.523804 1.28019 0.523804 1.37858C0.523804 1.47693 0.550359 1.59764 0.603516 1.74056C1.13462 3.00118 1.71218 4.21693 2.3362 5.38803C2.96022 6.55912 3.50249 7.50246 3.96267 8.21722C4.42294 8.93249 4.8921 9.60755 5.37014 10.2421C5.84818 10.8769 6.16461 11.2836 6.31942 11.4624C6.47443 11.6414 6.59618 11.7753 6.68469 11.8646L7.01669 12.1864C7.22914 12.401 7.5411 12.658 7.95273 12.9574C8.36445 13.257 8.82026 13.552 9.32039 13.8428C9.82061 14.1331 10.4025 14.37 11.0665 14.5532C11.7304 14.7366 12.3766 14.8102 13.0051 14.7747H14.5321C14.8418 14.7477 15.0764 14.6493 15.2359 14.4796L15.2887 14.4124C15.3242 14.359 15.3575 14.2761 15.3882 14.1646C15.4192 14.0529 15.4347 13.9298 15.4347 13.7958C15.4256 13.4115 15.4546 13.0651 15.5208 12.7567C15.587 12.4484 15.6624 12.216 15.7468 12.0595C15.8311 11.9031 15.9262 11.7711 16.0321 11.6641C16.1383 11.5569 16.2139 11.4919 16.2582 11.4695C16.3023 11.447 16.3375 11.4318 16.3641 11.4226C16.5765 11.3511 16.8266 11.4204 17.1145 11.6306C17.4023 11.8407 17.6721 12.1001 17.9246 12.4084C18.1769 12.717 18.48 13.0632 18.834 13.4475C19.1882 13.832 19.498 14.1178 19.7634 14.3058L20.0289 14.4667C20.2062 14.5741 20.4363 14.6725 20.7197 14.7618C21.0025 14.8512 21.2502 14.8735 21.463 14.8289L24.862 14.7753C25.1982 14.7753 25.4598 14.7191 25.6454 14.6075C25.8313 14.4958 25.9418 14.3727 25.9774 14.2388C26.0129 14.1048 26.0148 13.9527 25.9841 13.7827C25.9526 13.6131 25.9216 13.4945 25.8907 13.4274Z" fill="#F6120D"/>
</svg>
